<svg width="129" height="120" viewBox="0 0 129 120" fill="none" xmlns="http://www.w3.org/2000/svg">
<path d="M85.3498 33.6194C109.5 33.6194 127 53.4103 127 75.3723C127 82.3868 124.963 89.61 121.388 96.207C120.723 97.2926 120.64 98.6704 121.097 99.9648L123.882 109.317C124.506 111.572 122.594 113.242 120.474 112.574L112.077 110.069C109.791 109.317 108.004 110.278 105.88 111.572C99.811 115.163 92.25 117 85.433 117C64.8157 117 43.866 101.009 43.866 75.247C43.866 53.0345 61.7398 33.6194 85.3498 33.6194Z" fill="url(#paint0_linear)"/>
<g opacity="0.5" filter="url(#filter0_f)">
<path d="M111.892 75.7885C111.892 90.6842 99.8737 102.754 85.047 102.754C70.2203 102.754 58.2017 90.6842 58.2017 75.7885C58.2017 60.8982 70.2203 48.8231 85.047 48.8231C99.8737 48.8231 111.892 60.8982 111.892 75.7885Z" fill="#255DCC"/>
</g>
<g filter="url(#filter1_b)">
<mask id="path-3-outside-1" maskUnits="userSpaceOnUse" x="0" y="0" width="109" height="109" fill="black">
<rect fill="white" width="109" height="109"/>
<path d="M54.1473 1C23.3303 1 1 26.254 1 54.2784C1 63.2292 3.59902 72.4463 8.16056 80.8643C9.00922 82.2496 9.1153 84.0078 8.53185 85.6594L4.97809 97.5937C4.18247 100.471 6.62237 102.602 9.32747 101.749L20.0418 98.5528C22.9591 97.5937 25.2398 98.8191 27.9502 100.471C35.6942 105.053 45.3424 107.397 54.0412 107.397C80.3496 107.397 107.082 86.9913 107.082 54.1186C107.082 25.7745 84.2747 1 54.1473 1Z"/>
</mask>
<path d="M54.1473 1C23.3303 1 1 26.254 1 54.2784C1 63.2292 3.59902 72.4463 8.16056 80.8643C9.00922 82.2496 9.1153 84.0078 8.53185 85.6594L4.97809 97.5937C4.18247 100.471 6.62237 102.602 9.32747 101.749L20.0418 98.5528C22.9591 97.5937 25.2398 98.8191 27.9502 100.471C35.6942 105.053 45.3424 107.397 54.0412 107.397C80.3496 107.397 107.082 86.9913 107.082 54.1186C107.082 25.7745 84.2747 1 54.1473 1Z" fill="#90A8FF" fill-opacity="0.35"/>
<path d="M54.1473 2C54.6996 2 55.1473 1.55228 55.1473 1C55.1473 0.447715 54.6996 0 54.1473 0V2ZM8.16056 80.8643L7.28135 81.3408C7.28978 81.3563 7.29862 81.3716 7.30786 81.3867L8.16056 80.8643ZM8.53185 85.6594L7.58895 85.3263C7.58338 85.3421 7.57821 85.358 7.57344 85.374L8.53185 85.6594ZM4.97809 97.5937L4.01968 97.3083C4.01781 97.3146 4.01601 97.3209 4.01427 97.3272L4.97809 97.5937ZM9.32747 101.749L9.04156 100.791C9.03667 100.793 9.03178 100.794 9.02691 100.796L9.32747 101.749ZM20.0418 98.5528L20.3277 99.511C20.3365 99.5084 20.3453 99.5056 20.3541 99.5027L20.0418 98.5528ZM27.9502 100.471L27.4298 101.325L27.441 101.331L27.9502 100.471ZM54.1473 0C53.595 0 53.1473 0.447715 53.1473 1C53.1473 1.55228 53.595 2 54.1473 2V0ZM54.1473 0C22.741 0 0 25.7394 0 54.2784H2C2 26.7685 23.9197 2 54.1473 2V0ZM0 54.2784C0 63.4192 2.65263 72.7988 7.28135 81.3408L9.03978 80.3879C4.54541 72.0939 2 63.0391 2 54.2784H0ZM7.30786 81.3867C7.97498 82.4756 8.08846 83.9123 7.58895 85.3263L9.47475 85.9925C10.1421 84.1032 10.0435 82.0235 9.01326 80.3419L7.30786 81.3867ZM7.57344 85.374L4.01968 97.3083L5.9365 97.8791L9.49026 85.9448L7.57344 85.374ZM4.01427 97.3272C3.5227 99.1048 4.0217 100.749 5.16057 101.804C6.28898 102.849 7.95469 103.231 9.62803 102.703L9.02691 100.796C7.99514 101.121 7.08836 100.863 6.51945 100.336C5.961 99.8193 5.63786 98.9598 5.94191 97.8603L4.01427 97.3272ZM9.61337 102.708L20.3277 99.511L19.7559 97.5945L9.04156 100.791L9.61337 102.708ZM20.3541 99.5027C22.7886 98.7024 24.6936 99.6573 27.4299 101.325L28.4706 99.6168C25.7861 97.981 23.1295 96.485 19.7295 97.6028L20.3541 99.5027ZM27.441 101.331C35.3547 106.014 45.1822 108.397 54.0412 108.397V106.397C45.5027 106.397 36.0338 104.092 28.4595 99.6101L27.441 101.331ZM54.0412 108.397C80.8257 108.397 108.082 87.6169 108.082 54.1186H106.082C106.082 86.3658 79.8736 106.397 54.0412 106.397V108.397ZM108.082 54.1186C108.082 25.2487 84.8532 0 54.1473 0V2C83.6962 2 106.082 26.3002 106.082 54.1186H108.082Z" fill="url(#paint1_linear)" mask="url(#path-3-outside-1)"/>
</g>
<g filter="url(#filter2_bd)">
<mask id="path-5-inside-2" fill="white">
<path fill-rule="evenodd" clip-rule="evenodd" d="M53.9375 61.1507C50.1716 61.0974 47.1482 58.0605 47.1482 54.2778C47.1482 50.5483 50.2246 47.4581 53.9375 47.5114C57.7034 47.5114 60.7268 50.5483 60.7268 54.3311C60.7268 58.0605 57.7034 61.1507 53.9375 61.1507ZM29.4836 61.1507C25.7707 61.1507 22.6943 58.0606 22.6943 54.3311C22.6943 50.5483 25.7177 47.5115 29.4836 47.5115C33.2495 47.5115 36.2729 50.5483 36.2729 54.3311C36.2729 58.0606 33.2495 61.0975 29.4836 61.1507ZM71.5994 54.3311C71.5994 58.0606 74.6228 61.1507 78.3887 61.1507C82.1546 61.1507 85.178 58.0606 85.178 54.3311C85.178 50.5483 82.1546 47.5114 78.3887 47.5114C74.6228 47.5114 71.5994 50.5483 71.5994 54.3311Z"/>
</mask>
<path fill-rule="evenodd" clip-rule="evenodd" d="M53.9375 61.1507C50.1716 61.0974 47.1482 58.0605 47.1482 54.2778C47.1482 50.5483 50.2246 47.4581 53.9375 47.5114C57.7034 47.5114 60.7268 50.5483 60.7268 54.3311C60.7268 58.0605 57.7034 61.1507 53.9375 61.1507ZM29.4836 61.1507C25.7707 61.1507 22.6943 58.0606 22.6943 54.3311C22.6943 50.5483 25.7177 47.5115 29.4836 47.5115C33.2495 47.5115 36.2729 50.5483 36.2729 54.3311C36.2729 58.0606 33.2495 61.0975 29.4836 61.1507ZM71.5994 54.3311C71.5994 58.0606 74.6228 61.1507 78.3887 61.1507C82.1546 61.1507 85.178 58.0606 85.178 54.3311C85.178 50.5483 82.1546 47.5114 78.3887 47.5114C74.6228 47.5114 71.5994 50.5483 71.5994 54.3311Z" fill="url(#paint2_linear)"/>
<path d="M53.9375 61.1507L53.9318 61.5507H53.9375V61.1507ZM53.9375 47.5114L53.9318 47.9114H53.9375V47.5114ZM29.4836 61.1507V61.5508L29.4893 61.5507L29.4836 61.1507ZM46.7482 54.2778C46.7482 58.2809 49.9488 61.4943 53.9318 61.5506L53.9432 60.7507C50.3943 60.7005 47.5482 57.8402 47.5482 54.2778H46.7482ZM53.9432 47.1115C50.0021 47.0549 46.7482 50.3302 46.7482 54.2778H47.5482C47.5482 50.7663 50.4471 47.8614 53.9318 47.9114L53.9432 47.1115ZM61.1268 54.3311C61.1268 50.3291 57.926 47.1114 53.9375 47.1114V47.9114C57.4808 47.9114 60.3268 50.7675 60.3268 54.3311H61.1268ZM53.9375 61.5507C57.9281 61.5507 61.1268 58.2777 61.1268 54.3311H60.3268C60.3268 57.8434 57.4788 60.7507 53.9375 60.7507V61.5507ZM22.2943 54.3311C22.2943 58.2798 25.5481 61.5507 29.4836 61.5507V60.7507C25.9933 60.7507 23.0943 57.8414 23.0943 54.3311H22.2943ZM29.4836 47.1115C25.4951 47.1115 22.2943 50.3291 22.2943 54.3311H23.0943C23.0943 50.7676 25.9403 47.9115 29.4836 47.9115V47.1115ZM36.6729 54.3311C36.6729 50.3291 33.4721 47.1115 29.4836 47.1115V47.9115C33.0269 47.9115 35.8729 50.7676 35.8729 54.3311H36.6729ZM29.4893 61.5507C33.4702 61.4944 36.6729 58.2829 36.6729 54.3311H35.8729C35.8729 57.8383 33.0288 60.7005 29.478 60.7508L29.4893 61.5507ZM78.3887 60.7507C74.8474 60.7507 71.9994 57.8434 71.9994 54.3311H71.1994C71.1994 58.2777 74.3981 61.5507 78.3887 61.5507V60.7507ZM84.778 54.3311C84.778 57.8434 81.93 60.7507 78.3887 60.7507V61.5507C82.3792 61.5507 85.578 58.2777 85.578 54.3311H84.778ZM78.3887 47.9114C81.932 47.9114 84.778 50.7675 84.778 54.3311H85.578C85.578 50.3291 82.3772 47.1114 78.3887 47.1114V47.9114ZM71.9994 54.3311C71.9994 50.7675 74.8454 47.9114 78.3887 47.9114V47.1114C74.4002 47.1114 71.1994 50.3291 71.1994 54.3311H71.9994Z" fill="url(#paint3_linear)" mask="url(#path-5-inside-2)"/>
</g>
<defs>
<filter id="filter0_f" x="41.2017" y="31.8231" width="87.6907" height="87.9308" filterUnits="userSpaceOnUse" color-interpolation-filters="sRGB">
<feFlood flood-opacity="0" result="BackgroundImageFix"/>
<feBlend mode="normal" in="SourceGraphic" in2="BackgroundImageFix" result="shape"/>
<feGaussianBlur stdDeviation="8.5" result="effect1_foregroundBlur"/>
</filter>
<filter id="filter1_b" x="-24" y="-24" width="156.082" height="156.397" filterUnits="userSpaceOnUse" color-interpolation-filters="sRGB">
<feFlood flood-opacity="0" result="BackgroundImageFix"/>
<feGaussianBlur in="BackgroundImage" stdDeviation="12"/>
<feComposite in2="SourceAlpha" operator="in" result="effect1_backgroundBlur"/>
<feBlend mode="normal" in="SourceGraphic" in2="effect1_backgroundBlur" result="shape"/>
</filter>
<filter id="filter2_bd" x="7.69434" y="32.5107" width="92.4836" height="43.64" filterUnits="userSpaceOnUse" color-interpolation-filters="sRGB">
<feFlood flood-opacity="0" result="BackgroundImageFix"/>
<feGaussianBlur in="BackgroundImage" stdDeviation="7.5"/>
<feComposite in2="SourceAlpha" operator="in" result="effect1_backgroundBlur"/>
<feColorMatrix in="SourceAlpha" type="matrix" values="0 0 0 0 0 0 0 0 0 0 0 0 0 0 0 0 0 0 127 0" result="hardAlpha"/>
<feOffset dx="5" dy="5"/>
<feGaussianBlur stdDeviation="5"/>
<feColorMatrix type="matrix" values="0 0 0 0 0.359375 0 0 0 0 0.451875 0 0 0 0 0.9375 0 0 0 0.5 0"/>
<feBlend mode="normal" in2="effect1_backgroundBlur" result="effect2_dropShadow"/>
<feBlend mode="normal" in="SourceGraphic" in2="effect2_dropShadow" result="shape"/>
</filter>
<linearGradient id="paint0_linear" x1="85.433" y1="33.6194" x2="85.433" y2="117" gradientUnits="userSpaceOnUse">
<stop stop-color="#949FFF"/>
<stop offset="1" stop-color="#6675FF"/>
</linearGradient>
<linearGradient id="paint1_linear" x1="17.8866" y1="13.3954" x2="85.7986" y2="97.2574" gradientUnits="userSpaceOnUse">
<stop stop-color="white" stop-opacity="0.25"/>
<stop offset="1" stop-color="white" stop-opacity="0"/>
</linearGradient>
<linearGradient id="paint2_linear" x1="80.7479" y1="49.9738" x2="12.5935" y2="60.1533" gradientUnits="userSpaceOnUse">
<stop stop-color="white"/>
<stop offset="1" stop-color="white" stop-opacity="0.2"/>
</linearGradient>
<linearGradient id="paint3_linear" x1="32.6407" y1="49.0998" x2="35.6838" y2="66.3648" gradientUnits="userSpaceOnUse">
<stop stop-color="white" stop-opacity="0.25"/>
<stop offset="1" stop-color="white" stop-opacity="0"/>
</linearGradient>
</defs>
</svg>
