<svg width="81" height="84" viewBox="0 0 81 84" fill="none" xmlns="http://www.w3.org/2000/svg">
<circle cx="44.5" cy="47.5" r="36.5" fill="#B5EFA6"/>
<path d="M40.5 0C62.8414 0 81 18.1586 81 40.5C81 62.8414 62.8414 81 40.5 81C18.1586 81 0 62.8414 0 40.5C0 18.1586 18.1837 0 40.5 0ZM40.5 75.064C59.5603 75.064 75.064 59.5603 75.064 40.5C75.064 21.4397 59.5603 5.936 40.5 5.936C21.4397 5.936 5.936 21.4397 5.936 40.5C5.936 59.5603 21.4648 75.064 40.5 75.064Z" fill="#51A73B"/>
<path d="M57.4716 25.2781C55.8922 24.4277 54.1306 26.0678 53.0979 27.0397C50.7289 29.3481 48.7244 32.0209 46.4767 34.4507C43.9861 37.1235 41.6778 39.7963 39.1265 42.4084C37.6686 43.8663 36.0892 45.4457 35.1173 47.268C32.9305 45.1418 31.0474 42.8335 28.6176 40.9505C26.856 39.6141 23.9402 38.6422 24.0009 41.8617C24.1224 46.0532 27.8279 50.5484 30.5614 53.4033C31.7156 54.6182 33.2342 55.8939 34.9958 55.9546C37.1219 56.0761 39.3087 53.5248 40.5844 52.1276C42.8321 49.6978 44.6544 46.9642 46.7197 44.4737C49.3925 41.1935 52.126 37.9739 54.738 34.6329C56.3782 32.5676 61.5415 27.4649 57.4716 25.2781ZM26.6736 41.6187C26.6129 41.6187 26.5521 41.6187 26.4306 41.6794C26.1877 41.6187 26.0054 41.5579 25.7624 41.4364C25.9447 41.3149 26.2484 41.3756 26.6736 41.6187Z" fill="#51A73B"/>
</svg>
