<svg width="44" height="38" viewBox="0 0 44 38" fill="none" xmlns="http://www.w3.org/2000/svg">
<path d="M35.9268 37.9548C37.9931 37.9959 39.8511 37.4078 41.4069 36.0178C43.5182 34.1342 44.2695 31.7407 43.9143 28.9606C43.6856 27.147 43.073 25.5061 41.7867 24.1695C40.6923 23.0303 39.3407 22.3065 37.8951 21.7554C36.8538 21.3565 36.1759 20.6409 35.7553 19.6251C35.1223 18.0994 35.2693 16.5366 35.6124 15.0026C36.6904 10.2279 38.9241 6.10716 42.534 2.76777C42.9424 2.38941 43.2772 1.89179 43.5141 1.38183C43.7958 0.773174 43.4773 0.18919 42.8199 0.0740395C42.3421 -0.00821304 41.7908 -0.024662 41.3498 0.139843C40.2513 0.55521 39.1283 0.978802 38.1401 1.5998C34.0524 4.17426 30.659 7.4972 28.0006 11.5563C25.4443 15.4591 23.9742 19.7197 23.8598 24.4491C24.0028 25.6459 24.0681 26.855 24.2968 28.0312C25.4279 33.8217 30.1526 37.8314 35.9268 37.9548Z" fill="#2F292B"/>
<path d="M5.48778 35.1582C8.22377 37.4613 11.4375 38.5264 14.9372 37.7491C21.9609 36.1823 22.3407 28.3807 19.1269 24.5026C18.0039 23.1496 16.5012 22.3559 14.9004 21.739C13.9408 21.3688 13.2915 20.7108 12.8668 19.7814C12.2747 18.4942 12.2788 17.1452 12.5197 15.8087C13.4426 10.6885 15.7702 6.33335 19.5802 2.78832C19.915 2.47577 20.2295 2.10564 20.4541 1.70672C20.9482 0.826637 20.5112 0.0575867 19.5148 0.0123482C19.1269 -0.0041008 18.7022 0.00412369 18.3551 0.148064C17.2403 0.616894 16.0765 1.04049 15.0637 1.68616C10.8332 4.384 7.34988 7.86733 4.6874 12.1444C2.35159 15.8991 1.04077 19.9747 0.99585 24.4368C1.01218 28.6398 2.18825 32.374 5.48778 35.1582Z" fill="#2F292B"/>
</svg>
