<svg width="181" height="151" viewBox="0 0 181 151" fill="none" xmlns="http://www.w3.org/2000/svg">
<path fill-rule="evenodd" clip-rule="evenodd" d="M38.177 145.118L19.7344 146.265C14.0395 146.619 9.13173 142.286 8.77751 136.591L4.2887 64.4229C3.93448 58.7279 8.2675 53.8202 13.9624 53.4659L32.405 52.3188C38.0999 51.9646 43.0077 56.2976 43.3619 61.9925L47.8507 134.161C48.2049 139.856 43.8719 144.763 38.177 145.118Z" fill="white" stroke="#3B9C22" stroke-width="8"/>
<path fill-rule="evenodd" clip-rule="evenodd" d="M58.4691 61.2103L91.227 12.5841C97.322 3.52656 110.261 2.506 117.71 10.4857C120.494 13.4603 122.146 17.3193 122.399 21.3829L124.386 53.335L154.629 51.4539C160.499 51.0887 166.162 53.6784 169.728 58.3498L173.24 62.9462C176.389 67.0748 177.563 72.3853 176.436 77.4467L166.03 124.398C164.33 132.065 157.766 137.68 149.932 138.167L88.4989 141.988C83.6148 142.292 78.8192 140.551 75.2756 137.182L62.4354 124.978" fill="white"/>
<path d="M58.4691 61.2103L91.227 12.5841C97.322 3.52656 110.261 2.506 117.71 10.4857C120.494 13.4603 122.146 17.3193 122.399 21.3829L124.386 53.335L154.629 51.4539C160.499 51.0887 166.162 53.6784 169.728 58.3498L173.24 62.9462C176.389 67.0748 177.563 72.3853 176.436 77.4467L166.03 124.398C164.33 132.065 157.766 137.68 149.932 138.167L88.4989 141.988C83.6148 142.292 78.8192 140.551 75.2756 137.182L62.4354 124.978L58.4691 61.2103Z" stroke="#3B9C22" stroke-width="8"/>
</svg>
