<svg width="81" height="84" viewBox="0 0 81 84" fill="none" xmlns="http://www.w3.org/2000/svg">
<circle cx="44.5" cy="47.5" r="36.5" fill="#FBDC10"/>
<path d="M40.5 0C62.8414 0 81 18.1586 81 40.5C81 62.8414 62.8414 81 40.5 81C18.1586 81 0 62.8414 0 40.5C0 18.1586 18.1837 0 40.5 0ZM40.5 75.064C59.5603 75.064 75.064 59.5603 75.064 40.5C75.064 21.4397 59.5603 5.936 40.5 5.936C21.4397 5.936 5.936 21.4397 5.936 40.5C5.936 59.5603 21.4648 75.064 40.5 75.064Z" fill="black"/>
<path d="M44.94 19.88C44.94 19.6 44.87 18.97 44.87 18.06C44.87 17.22 44.87 16.8 44.87 16.66C44.03 16.31 43.05 16.1 42.07 16.1C41.86 16.1 41.51 16.1 41.02 16.1C40.46 16.17 40.18 16.17 40.11 16.17C38.43 24.15 37.66 32.97 37.66 42.49C37.66 43.89 37.66 44.94 37.8 45.64C38.22 45.85 39.06 45.92 40.32 45.92C41.23 45.92 41.79 45.92 42 45.85C42.98 43.33 43.75 38.29 44.38 30.8C44.73 26.32 44.94 22.68 44.94 19.88ZM44.8 55.72C41.86 53.83 39.41 52.85 37.38 52.71C35.63 55.72 34.58 58.1 34.3 59.85C36.33 61.39 38.78 62.44 41.72 63.14C42.21 62.58 42.84 61.46 43.61 59.64C44.38 57.82 44.8 56.56 44.8 55.72Z" fill="black"/>
</svg>
