<svg width="137" height="137" viewBox="0 0 137 137" fill="none" xmlns="http://www.w3.org/2000/svg">
<circle cx="68.5" cy="68.5" r="68.5" fill="#FFD80E"/>
<path d="M73.3165 84.4886C70.554 84.4886 68.2589 82.3516 68.0596 79.596L65.0224 37.9263C64.6719 33.1024 68.4857 29 73.3233 29C78.1541 29 81.9747 33.1024 81.6243 37.9263L78.587 79.596C78.374 82.3516 76.0789 84.4886 73.3165 84.4886Z" fill="white"/>
<path d="M73.3646 109.838C77.8125 109.838 81.4182 106.232 81.4182 101.785C81.4182 97.3367 77.8125 93.731 73.3646 93.731C68.9167 93.731 65.311 97.3367 65.311 101.785C65.311 106.232 68.9167 109.838 73.3646 109.838Z" fill="white"/>
</svg>
