<svg width="112" height="61" viewBox="0 0 112 61" fill="none" xmlns="http://www.w3.org/2000/svg">
<path d="M43.3945 0.0922896C39.366 0.0856878 35.3308 0.0922896 31.3023 0.0922896C22.7028 0.0922896 14.0966 0.0856878 5.49711 0.0988913C2.31528 0.0988913 0.0132572 2.26426 0.0132572 5.28785C2.7201e-05 15.9364 -0.00658782 26.585 0.0132572 37.227C0.0198723 40.4289 2.22929 42.5678 5.44419 42.5678C12.4693 42.5678 19.4879 42.5678 26.513 42.5678C26.9628 42.5678 27.4193 42.5678 27.9022 42.5678C28.008 43.0564 28.1072 43.4525 28.1734 43.8552C28.8481 47.7766 28.7754 51.6782 28.0609 55.593C27.5053 58.6496 30.0653 61.3432 33.1214 60.9537C34.6032 60.7688 35.7344 59.9502 36.634 58.8015C40.8875 53.3419 44.3273 47.4135 46.8873 40.99C48.0118 38.1777 48.8982 35.2729 48.9115 32.2097C48.9445 23.304 48.971 14.3982 48.9379 5.4859C48.9181 2.19824 46.6954 0.0988913 43.3945 0.0922896Z" fill="black"/>
<path d="M105.768 0.0132321C92.9212 2.86176e-05 80.0814 -0.00657311 67.235 0.0132321C64.2252 0.0198338 62.0555 2.20501 62.0555 5.2154C62.0423 15.8244 62.0423 26.4334 62.0621 37.0423C62.0687 40.462 64.1855 42.5284 67.5989 42.535C74.538 42.5416 81.4838 42.535 88.423 42.535C88.9125 42.535 89.402 42.535 90.2685 42.535C90.381 45.5718 90.553 48.4171 90.5662 51.2625C90.5728 52.6158 90.2884 53.9758 90.0899 55.3291C89.7592 57.6199 90.7117 59.5807 92.6499 60.5049C94.4823 61.3763 96.6983 60.8944 98.2066 59.2704C98.6035 58.8479 98.9673 58.3923 99.3179 57.9302C103.049 52.9261 106.171 47.5655 108.579 41.8088C109.816 38.8578 110.888 35.8078 110.927 32.5928C111.02 23.4362 111.02 14.273 110.967 5.11637C110.94 2.12579 108.691 0.0132321 105.768 0.0132321Z" fill="black"/>
</svg>
