<?xml version="1.0" encoding="UTF-8" standalone="no"?>
<!DOCTYPE svg PUBLIC "-//W3C//DTD SVG 1.1//EN" "http://www.w3.org/Graphics/SVG/1.1/DTD/svg11.dtd">
<svg version="1.1" xmlns="http://www.w3.org/2000/svg" xmlns:xlink="http://www.w3.org/1999/xlink" preserveAspectRatio="xMidYMid meet" viewBox="0 0 641 132" width="641" height="132"><defs><path d="M364.32 23.74C300.86 11.67 190.04 0.65 136.28 16.84C96.44 28.85 57.37 44.63 30.96 69.82C4.56 95.01 -7.02 131.21 11.12 162.25C25.4 186.68 56.01 204.65 88.77 214.69C121.52 224.73 156.72 227.77 191.36 230.01C263.47 234.78 335.68 236.6 407.54 235.59C458.25 234.84 510.12 232.42 555.07 216.72C600.02 201.01 637.25 169.24 638.5 130.99C639.65 95.35 609.04 60.53 568.7 39.74C528.36 19.01 479.65 10.45 432.24 7.45C355.8 2.53 279.04 10.85 209.54 31.48" id="c5VO1te7u"></path></defs><g><g><g><use xlink:href="#c5VO1te7u" opacity="1" fill="#000000" fill-opacity="0"></use><g><use xlink:href="#c5VO1te7u" opacity="1" fill-opacity="0" stroke="#ff7336" stroke-width="5" stroke-opacity="1"></use></g></g></g></g></svg>