<svg width="1046" height="386" viewBox="0 0 1046 386" fill="none" xmlns="http://www.w3.org/2000/svg">
<path d="M588.807 33.9309C484.4 17.7451 302.638 5.95417 215.667 35.4315C151.205 57.2983 88.2227 85.275 46.4809 127.937C4.73914 170.599 -12.1689 230.411 19.2167 280.147C43.9447 319.272 94.9859 346.927 149.092 361.505C203.198 376.082 260.896 379.084 317.644 380.799C435.789 384.55 553.934 383.479 671.34 377.797C754.189 373.724 838.835 366.864 911.434 338.673C984.033 310.482 1043.11 256.458 1043 193.859C1042.89 135.547 990.902 80.3443 923.798 48.6159C856.694 16.9948 776.592 5.73979 698.921 3.48879C573.695 -0.26287 448.681 17.6379 336.243 55.2617" stroke="#FF7336" stroke-width="5" stroke-miterlimit="10"/>
</svg>
