<?xml version="1.0" encoding="UTF-8" standalone="no"?>
<!DOCTYPE svg PUBLIC "-//W3C//DTD SVG 1.1//EN" "http://www.w3.org/Graphics/SVG/1.1/DTD/svg11.dtd">
<svg version="1.1" xmlns="http://www.w3.org/2000/svg" xmlns:xlink="http://www.w3.org/1999/xlink" preserveAspectRatio="xMidYMid meet" viewBox="0 0 640 128" width="640" height="128"><defs><path d="M363.61 20.79C300.17 8.87 189.4 -1.88 135.72 14.42C95.93 26.52 56.93 42.37 30.61 67.61C4.28 92.85 -7.21 129.04 10.99 160.03C25.32 184.4 55.95 202.28 88.71 212.24C121.46 222.2 156.64 225.15 191.26 227.31C263.33 231.9 335.49 233.55 407.3 232.37C457.97 231.5 509.79 228.96 554.67 213.17C599.55 197.37 636.68 165.53 637.83 127.3C638.91 91.69 608.24 56.97 567.88 36.29C527.52 15.67 478.82 7.23 431.44 4.34C355.04 -0.39 278.36 8.1 208.96 28.89" id="a2a1CcpFYV"></path><path d="M479.19 203.73C473.93 203.73 468.67 203.72 463.42 203.73C461.48 203.73 460.07 205.05 460.07 206.9C460.06 213.4 460.06 219.91 460.07 226.41C460.07 228.37 461.42 229.68 463.39 229.68C467.68 229.68 471.97 229.68 476.26 229.68C476.53 229.68 476.81 229.68 477.11 229.68C477.17 229.97 477.23 230.22 477.27 230.46C477.69 232.86 477.64 235.24 477.21 237.63C476.87 239.5 478.43 241.15 480.3 240.91C481.2 240.8 481.89 240.3 482.44 239.59C485.04 236.26 487.14 232.64 488.71 228.71C489.39 226.99 489.94 225.22 489.94 223.35C489.96 217.91 489.98 212.47 489.96 207.02C489.95 205.01 488.59 203.73 486.57 203.73C484.11 203.72 481.65 203.73 479.19 203.73Z" id="e2W2jAXwZp"></path><path d="M501.14 203.68C499.3 203.68 497.97 205.02 497.97 206.85C497.97 213.34 497.97 219.82 497.98 226.3C497.98 228.39 499.28 229.65 501.36 229.66C505.6 229.66 509.84 229.66 514.08 229.66C514.38 229.66 514.68 229.66 515.21 229.66C515.28 231.51 515.38 233.25 515.39 234.99C515.4 235.81 515.22 236.65 515.1 237.47C514.9 238.87 515.48 240.07 516.67 240.63C517.79 241.17 519.14 240.87 520.06 239.88C520.3 239.62 520.53 239.34 520.74 239.06C523.02 236 524.93 232.73 526.4 229.21C527.15 227.41 527.81 225.55 527.83 223.58C527.89 217.99 527.89 212.39 527.86 206.79C527.84 204.97 526.47 203.68 524.68 203.68C516.83 203.67 508.99 203.66 501.14 203.68Z" id="d8wR1EZiWD"></path></defs><g><g><g><use xlink:href="#a2a1CcpFYV" opacity="1" fill="#000000" fill-opacity="0"></use><g><use xlink:href="#a2a1CcpFYV" opacity="1" fill-opacity="0" stroke="#ff7336" stroke-width="5" stroke-opacity="1"></use></g></g><g><use xlink:href="#e2W2jAXwZp" opacity="1" fill="#000000" fill-opacity="1"></use><g><use xlink:href="#e2W2jAXwZp" opacity="1" fill-opacity="0" stroke="#000000" stroke-width="1" stroke-opacity="0"></use></g></g><g><use xlink:href="#d8wR1EZiWD" opacity="1" fill="#000000" fill-opacity="1"></use><g><use xlink:href="#d8wR1EZiWD" opacity="1" fill-opacity="0" stroke="#000000" stroke-width="1" stroke-opacity="0"></use></g></g></g></g></svg>