<svg width="1046" height="397" viewBox="0 0 1046 397" fill="none" xmlns="http://www.w3.org/2000/svg">
<path d="M588.807 33.9309C484.4 17.7451 302.638 5.95417 215.667 35.4315C151.205 57.2983 88.2227 85.275 46.4809 127.937C4.73914 170.599 -12.1689 230.411 19.2167 280.147C43.9447 319.272 94.9859 346.927 149.092 361.505C203.198 376.082 260.896 379.084 317.644 380.799C435.789 384.55 553.934 383.479 671.34 377.797C754.189 373.724 838.835 366.864 911.434 338.673C984.033 310.482 1043.11 256.458 1043 193.859C1042.89 135.547 990.902 80.3443 923.798 48.6159C856.694 16.9948 776.592 5.73979 698.921 3.48879C573.695 -0.26287 448.681 17.6379 336.243 55.2617" stroke="#FF7336" stroke-width="5" stroke-miterlimit="10"/>
<path d="M794.395 336.092C790.366 336.086 786.331 336.092 782.302 336.092C773.703 336.092 765.097 336.086 756.497 336.099C753.315 336.099 751.013 338.264 751.013 341.288C751 351.936 750.993 362.585 751.013 373.227C751.02 376.429 753.229 378.568 756.444 378.568C763.469 378.568 770.488 378.568 777.513 378.568C777.963 378.568 778.419 378.568 778.902 378.568C779.008 379.056 779.107 379.452 779.173 379.855C779.848 383.777 779.775 387.678 779.061 391.593C778.505 394.65 781.065 397.343 784.121 396.954C785.603 396.769 786.734 395.95 787.634 394.801C791.887 389.342 795.327 383.414 797.887 376.99C799.012 374.178 799.898 371.273 799.911 368.21C799.945 359.304 799.971 350.398 799.938 341.486C799.918 338.198 797.695 336.099 794.395 336.092Z" fill="black"/>
<path d="M856.768 336.013C843.921 336 831.081 335.993 818.235 336.013C815.225 336.02 813.055 338.205 813.055 341.215C813.042 351.824 813.042 362.433 813.062 373.042C813.069 376.462 815.186 378.528 818.599 378.535C825.538 378.542 832.484 378.535 839.423 378.535C839.912 378.535 840.402 378.535 841.269 378.535C841.381 381.572 841.553 384.417 841.566 387.262C841.573 388.616 841.288 389.976 841.09 391.329C840.759 393.62 841.712 395.581 843.65 396.505C845.482 397.376 847.698 396.894 849.207 395.27C849.603 394.848 849.967 394.392 850.318 393.93C854.049 388.926 857.171 383.566 859.579 377.809C860.816 374.858 861.888 371.808 861.927 368.593C862.02 359.436 862.02 350.273 861.967 341.116C861.94 338.126 859.691 336.013 856.768 336.013Z" fill="black"/>
</svg>
