<?xml version="1.0" encoding="UTF-8" standalone="no"?>
<!DOCTYPE svg PUBLIC "-//W3C//DTD SVG 1.1//EN" "http://www.w3.org/Graphics/SVG/1.1/DTD/svg11.dtd">
<svg version="1.1" xmlns="http://www.w3.org/2000/svg" xmlns:xlink="http://www.w3.org/1999/xlink" preserveAspectRatio="xMidYMid meet" viewBox="0 0 640 113" width="640" height="113"><defs><path d="M363.61 -107.15C300.17 -119.07 189.4 -129.81 135.72 -113.51C95.93 -101.41 56.93 -85.56 30.61 -60.32C4.28 -35.08 -7.21 1.11 10.99 32.09C25.32 56.47 55.95 74.35 88.71 84.31C121.46 94.26 156.64 97.22 191.26 99.38C263.33 103.97 335.49 105.62 407.3 104.44C457.97 103.57 509.79 101.03 554.67 85.23C599.55 69.44 636.68 37.6 637.83 -0.63C638.91 -36.24 608.24 -70.96 567.88 -91.65C527.52 -112.26 478.82 -120.7 431.44 -123.59C355.04 -128.32 278.36 -119.83 208.96 -99.05" id="jFFwKkV3m"></path><path d="M479.19 75.79C473.93 75.79 468.67 75.79 463.42 75.8C461.48 75.8 460.07 77.12 460.07 78.97C460.06 85.47 460.06 91.98 460.07 98.48C460.07 100.44 461.42 101.74 463.39 101.74C467.68 101.74 471.97 101.74 476.26 101.74C476.53 101.74 476.81 101.74 477.11 101.74C477.17 102.04 477.23 102.28 477.27 102.53C477.69 104.93 477.64 107.31 477.21 109.7C476.87 111.57 478.43 113.21 480.3 112.98C481.2 112.86 481.89 112.36 482.44 111.66C485.04 108.33 487.14 104.7 488.71 100.78C489.39 99.06 489.94 97.29 489.94 95.42C489.96 89.97 489.98 84.53 489.96 79.09C489.95 77.08 488.59 75.8 486.57 75.79C484.11 75.79 481.65 75.79 479.19 75.79Z" id="alZ3hIRoH"></path><path d="M501.14 75.75C499.3 75.75 497.97 77.08 497.97 78.92C497.97 85.4 497.97 91.89 497.98 98.37C497.98 100.46 499.28 101.72 501.36 101.72C505.6 101.73 509.84 101.72 514.08 101.72C514.38 101.72 514.68 101.72 515.21 101.72C515.28 103.58 515.38 105.32 515.39 107.06C515.4 107.88 515.22 108.71 515.1 109.54C514.9 110.94 515.48 112.14 516.67 112.7C517.79 113.23 519.14 112.94 520.06 111.95C520.3 111.69 520.53 111.41 520.74 111.13C523.02 108.07 524.93 104.8 526.4 101.28C527.15 99.48 527.81 97.61 527.83 95.65C527.89 90.06 527.89 84.46 527.86 78.86C527.84 77.04 526.47 75.75 524.68 75.75C516.83 75.74 508.99 75.73 501.14 75.75Z" id="agwAHd4fT"></path></defs><g><g><g><use xlink:href="#jFFwKkV3m" opacity="1" fill="#000000" fill-opacity="0"></use><g><use xlink:href="#jFFwKkV3m" opacity="1" fill-opacity="0" stroke="#ff7336" stroke-width="5" stroke-opacity="1"></use></g></g><g><use xlink:href="#alZ3hIRoH" opacity="1" fill="#000000" fill-opacity="1"></use><g><use xlink:href="#alZ3hIRoH" opacity="1" fill-opacity="0" stroke="#000000" stroke-width="1" stroke-opacity="0"></use></g></g><g><use xlink:href="#agwAHd4fT" opacity="1" fill="#000000" fill-opacity="1"></use><g><use xlink:href="#agwAHd4fT" opacity="1" fill-opacity="0" stroke="#000000" stroke-width="1" stroke-opacity="0"></use></g></g></g></g></svg>