<svg width="91" height="97" viewBox="0 0 91 97" fill="none" xmlns="http://www.w3.org/2000/svg">
<circle cx="54.5" cy="36.5" r="36.5" fill="#FBDC10"/>
<path d="M40.5 97C18.1586 97 0 78.8414 0 56.5C0 34.1586 18.1586 16 40.5 16C62.8414 16 81 34.1586 81 56.5C81 78.8414 62.8163 97 40.5 97ZM40.5 21.936C21.4397 21.936 5.936 37.4397 5.936 56.5C5.936 75.5603 21.4397 91.064 40.5 91.064C59.5603 91.064 75.064 75.5603 75.064 56.5C75.064 37.4397 59.5352 21.936 40.5 21.936Z" fill="black"/>
<path d="M27.3187 61.6984C26.4886 66.3009 25.1214 69.599 24.0228 71.6418C23.5833 72.4294 24.4622 73.3401 25.2435 72.8724C34.4478 67.4577 38.4763 59.5817 38.9646 53.2563C39.404 47.7924 35.7174 42.1808 30.1264 41.1717C24.5355 40.1379 19.1887 43.879 18.1632 49.5399C17.1134 55.4469 21.2395 61.1323 27.3187 61.6984Z" fill="black"/>
<path d="M52.7661 61.6984C51.8967 66.3009 50.4648 69.599 49.3142 71.6418C48.8539 72.4294 49.7744 73.3401 50.5927 72.8724C60.2325 67.4577 64.4515 59.5817 64.9629 53.2563C65.4231 47.7924 61.5621 42.1808 55.7066 41.1717C49.8512 40.1379 44.2514 43.879 43.1774 49.5399C42.0524 55.4469 46.3992 61.1323 52.7661 61.6984Z" fill="black"/>
</svg>