<svg width="83" height="86" viewBox="0 0 83 86" fill="none" xmlns="http://www.w3.org/2000/svg">
<circle cx="46.5" cy="49.5" r="36.5" fill="#FBDC10"/>
<path d="M40.5 0C62.8414 0 81 18.1586 81 40.5C81 62.8414 62.8414 81 40.5 81C18.1586 81 0 62.8414 0 40.5C0 18.1586 18.1837 0 40.5 0ZM40.5 75.064C59.5603 75.064 75.064 59.5603 75.064 40.5C75.064 21.4397 59.5603 5.936 40.5 5.936C21.4397 5.936 5.936 21.4397 5.936 40.5C5.936 59.5603 21.4648 75.064 40.5 75.064Z" fill="black"/>
<path d="M53.6813 35.3016C54.5114 30.6991 55.8786 27.401 56.9772 25.3582C57.4167 24.5706 56.5378 23.6599 55.7565 24.1276C46.5522 29.5423 42.5237 37.4183 42.0354 43.7437C41.596 49.2076 45.2826 54.8192 50.8736 55.8283C56.4645 56.8621 61.8113 53.121 62.8368 47.4601C63.8866 41.5531 59.7605 35.8677 53.6813 35.3016Z" fill="black"/>
<path d="M28.2339 35.3016C29.1033 30.6991 30.5352 27.401 31.6858 25.3582C32.1461 24.5706 31.2256 23.6599 30.4073 24.1276C20.7675 29.5423 16.5485 37.4183 16.0371 43.7437C15.5769 49.2076 19.4379 54.8192 25.2934 55.8283C31.1488 56.8621 36.7486 53.121 37.8226 47.4601C38.9476 41.5531 34.6008 35.8677 28.2339 35.3016Z" fill="black"/>
</svg> 