<svg width="124" height="118" viewBox="0 0 124 118" fill="none" xmlns="http://www.w3.org/2000/svg">
<path d="M104.884 14.0824L71.5697 5.13506C59.4858 1.88962 50.5542 7.09198 47.3057 19.244L36.3033 60.4014C33.0015 72.7526 38.1839 81.5748 50.2679 84.8203L83.5822 93.7677C95.8609 97.0654 104.551 91.969 107.853 79.6178L118.855 38.4604C122.104 26.3084 117.163 17.3802 104.884 14.0824Z" fill="url(#paint0_linear)"/>
<g opacity="0.5" filter="url(#filter0_f)">
<path d="M96.1797 25.353L73.4823 19.2571C65.2494 17.046 59.1643 20.5904 56.951 28.8697L49.455 56.9106C47.2054 65.3256 50.7363 71.3363 58.9692 73.5474L81.6666 79.6433C90.0322 81.8901 95.9529 78.4179 98.2024 70.0029L105.698 41.962C107.912 33.6827 104.545 27.5998 96.1797 25.353Z" fill="#39B93A"/>
</g>
<g filter="url(#filter1_b)">
<mask id="path-3-outside-1" maskUnits="userSpaceOnUse" x="0" y="21.0828" width="97" height="97" fill="black">
<rect fill="white" y="21.0828" width="97" height="97"/>
<path d="M68.8972 22.0828H27.8464C11.7954 22.0828 1 33.3779 1 50.1783V88.952C1 105.705 11.7954 117 27.8464 117H68.8972C84.9482 117 95.6962 105.705 95.6962 88.952V50.1783C95.6962 33.3779 84.9482 22.0828 68.8972 22.0828Z"/>
</mask>
<path d="M68.8972 22.0828H27.8464C11.7954 22.0828 1 33.3779 1 50.1783V88.952C1 105.705 11.7954 117 27.8464 117H68.8972C84.9482 117 95.6962 105.705 95.6962 88.952V50.1783C95.6962 33.3779 84.9482 22.0828 68.8972 22.0828Z" fill="#72DC60" fill-opacity="0.35"/>
<path d="M68.8972 23.0828C69.4495 23.0828 69.8972 22.635 69.8972 22.0828C69.8972 21.5305 69.4495 21.0828 68.8972 21.0828V23.0828ZM68.8972 21.0828C68.3449 21.0828 67.8972 21.5305 67.8972 22.0828C67.8972 22.635 68.3449 23.0828 68.8972 23.0828V21.0828ZM68.8972 21.0828H27.8464V23.0828H68.8972V21.0828ZM27.8464 21.0828C19.5773 21.0828 12.5945 23.9978 7.68108 29.1395C2.77147 34.2772 0 41.562 0 50.1783H2C2 41.9942 4.62621 35.2312 9.12703 30.5213C13.6241 25.8153 20.0644 23.0828 27.8464 23.0828V21.0828ZM0 50.1783V88.952H2V50.1783H0ZM0 88.952C0 97.5452 2.77192 104.818 7.6815 109.95C12.5948 115.085 19.5774 118 27.8464 118V116C20.0643 116 13.6238 113.267 9.12662 108.567C4.62577 103.863 2 97.1116 2 88.952H0ZM27.8464 118H68.8972V116H27.8464V118ZM68.8972 118C77.1664 118 84.1376 115.085 89.0392 109.949C93.9369 104.817 96.6962 97.544 96.6962 88.952H94.6962C94.6962 97.1128 92.0815 103.864 87.5924 108.568C83.1072 113.268 76.679 116 68.8972 116V118ZM96.6962 88.952V50.1783H94.6962V88.952H96.6962ZM96.6962 50.1783C96.6962 41.5632 93.9373 34.2786 89.0397 29.1404C84.1379 23.998 77.1664 21.0828 68.8972 21.0828V23.0828C76.679 23.0828 83.1069 25.8151 87.592 30.5203C92.0811 35.2299 94.6962 41.993 94.6962 50.1783H96.6962Z" fill="url(#paint1_linear)" mask="url(#path-3-outside-1)"/>
</g>
<g filter="url(#filter2_bd)">
<mask id="path-5-inside-2" fill="white">
<path d="M42.7278 84.9556C41.6672 84.9556 40.6066 84.5522 39.797 83.7407L28.5613 72.4788C26.942 70.8557 26.942 68.2265 28.5613 66.6081C30.1806 64.9851 32.7989 64.9803 34.4182 66.6034L42.7278 74.9324L62.2731 55.3415C63.8924 53.7184 66.5108 53.7184 68.1301 55.3415C69.7494 56.9645 69.7494 59.5938 68.1301 61.2168L45.6587 83.7407C44.849 84.5522 43.7884 84.9556 42.7278 84.9556Z"/>
</mask>
<path d="M42.7278 84.9556C41.6672 84.9556 40.6066 84.5522 39.797 83.7407L28.5613 72.4788C26.942 70.8557 26.942 68.2265 28.5613 66.6081C30.1806 64.9851 32.7989 64.9803 34.4182 66.6034L42.7278 74.9324L62.2731 55.3415C63.8924 53.7184 66.5108 53.7184 68.1301 55.3415C69.7494 56.9645 69.7494 59.5938 68.1301 61.2168L45.6587 83.7407C44.849 84.5522 43.7884 84.9556 42.7278 84.9556Z" fill="url(#paint2_linear)"/>
<path d="M28.5613 66.6081L28.7027 66.7496L28.7029 66.7494L28.5613 66.6081ZM42.7278 74.9324L42.5862 75.0736L42.7278 75.2156L42.8694 75.0736L42.7278 74.9324ZM68.1301 61.2168L67.9885 61.0756L68.1301 61.2168ZM45.6587 83.7407L45.8003 83.882L45.6587 83.7407ZM42.7278 84.7556C41.718 84.7556 40.7091 84.3717 39.9386 83.5994L39.6554 83.882C40.5042 84.7327 41.6165 85.1556 42.7278 85.1556V84.7556ZM39.9386 83.5994L28.7029 72.3375L28.4197 72.62L39.6554 83.882L39.9386 83.5994ZM28.7029 72.3375C27.1613 70.7924 27.1616 68.2897 28.7027 66.7496L28.4199 66.4667C26.7223 68.1632 26.7226 70.919 28.4197 72.62L28.7029 72.3375ZM28.7029 66.7494C30.2443 65.2043 32.7358 65.2002 34.2767 66.7446L34.5598 66.4621C32.8621 64.7604 30.1168 64.7658 28.4197 66.4669L28.7029 66.7494ZM34.2767 66.7446L42.5862 75.0736L42.8694 74.7911L34.5598 66.4621L34.2767 66.7446ZM42.8694 75.0736L62.4147 55.4827L62.1315 55.2002L42.5862 74.7911L42.8694 75.0736ZM62.4147 55.4827C63.9559 53.938 66.4473 53.938 67.9885 55.4827L68.2717 55.2002C66.5742 53.4988 63.829 53.4988 62.1315 55.2002L62.4147 55.4827ZM67.9885 55.4827C69.5299 57.0277 69.5299 59.5306 67.9885 61.0756L68.2717 61.3581C69.9689 59.6569 69.9689 56.9014 68.2717 55.2002L67.9885 55.4827ZM67.9885 61.0756L45.5171 83.5994L45.8003 83.882L68.2717 61.3581L67.9885 61.0756ZM45.5171 83.5994C44.7466 84.3717 43.7377 84.7556 42.7278 84.7556V85.1556C43.8392 85.1556 44.9515 84.7327 45.8003 83.882L45.5171 83.5994Z" fill="url(#paint3_linear)" fill-opacity="0.5" mask="url(#path-5-inside-2)"/>
</g>
<defs>
<filter id="filter0_f" x="34.7902" y="4.61255" width="85.5713" height="89.6988" filterUnits="userSpaceOnUse" color-interpolation-filters="sRGB">
<feFlood flood-opacity="0" result="BackgroundImageFix"/>
<feBlend mode="normal" in="SourceGraphic" in2="BackgroundImageFix" result="shape"/>
<feGaussianBlur stdDeviation="7" result="effect1_foregroundBlur"/>
</filter>
<filter id="filter1_b" x="-24" y="-2.91724" width="144.696" height="144.917" filterUnits="userSpaceOnUse" color-interpolation-filters="sRGB">
<feFlood flood-opacity="0" result="BackgroundImageFix"/>
<feGaussianBlur in="BackgroundImage" stdDeviation="12"/>
<feComposite in2="SourceAlpha" operator="in" result="effect1_backgroundBlur"/>
<feBlend mode="normal" in="SourceGraphic" in2="effect1_backgroundBlur" result="shape"/>
</filter>
<filter id="filter2_bd" x="12.3468" y="39.1241" width="71.9978" height="60.8315" filterUnits="userSpaceOnUse" color-interpolation-filters="sRGB">
<feFlood flood-opacity="0" result="BackgroundImageFix"/>
<feGaussianBlur in="BackgroundImage" stdDeviation="7.5"/>
<feComposite in2="SourceAlpha" operator="in" result="effect1_backgroundBlur"/>
<feColorMatrix in="SourceAlpha" type="matrix" values="0 0 0 0 0 0 0 0 0 0 0 0 0 0 0 0 0 0 127 0" result="hardAlpha"/>
<feOffset dx="5" dy="5"/>
<feGaussianBlur stdDeviation="5"/>
<feColorMatrix type="matrix" values="0 0 0 0 0.454902 0 0 0 0 0.870588 0 0 0 0 0.376471 0 0 0 0.5 0"/>
<feBlend mode="normal" in2="effect1_backgroundBlur" result="effect2_dropShadow"/>
<feBlend mode="normal" in="SourceGraphic" in2="effect2_dropShadow" result="shape"/>
</filter>
<linearGradient id="paint0_linear" x1="124" y1="19.2164" x2="51.2555" y2="63.6343" gradientUnits="userSpaceOnUse">
<stop stop-color="#9BF763"/>
<stop offset="1" stop-color="#26AB5B"/>
</linearGradient>
<linearGradient id="paint1_linear" x1="16.0741" y1="33.1407" x2="76.6508" y2="107.992" gradientUnits="userSpaceOnUse">
<stop stop-color="white" stop-opacity="0.25"/>
<stop offset="1" stop-color="white" stop-opacity="0"/>
</linearGradient>
<linearGradient id="paint2_linear" x1="66.367" y1="59.6917" x2="19.6279" y2="61.7675" gradientUnits="userSpaceOnUse">
<stop stop-color="white"/>
<stop offset="1" stop-color="white" stop-opacity="0.2"/>
</linearGradient>
<linearGradient id="paint3_linear" x1="31.8709" y1="64.4666" x2="67.5319" y2="64.7348" gradientUnits="userSpaceOnUse">
<stop stop-color="white"/>
<stop offset="1" stop-color="white" stop-opacity="0"/>
</linearGradient>
</defs>
</svg>
