<svg width="100" height="67" viewBox="0 0 100 67" fill="none" xmlns="http://www.w3.org/2000/svg">
<path d="M41.4331 0C27.6077 0 13.8182 0 0 0C0 13.8563 0 27.655 0 41.5472C7.57448 41.5472 15.0914 41.5472 22.6371 41.5472C24.8023 50.0636 24.0614 58.2638 20.5511 66.4066C20.8604 66.2197 20.9971 66.1406 21.1266 66.0544C26.579 62.2669 31.3553 57.8039 35.0311 52.2484C39.0593 46.1684 41.4259 39.5277 41.4618 32.1827C41.5122 21.6684 41.4762 11.1468 41.4762 0.632443C41.4762 0.431211 41.4475 0.237166 41.4331 0Z" fill="#2F292B"/>
<path d="M99.9285 0.869595C99.9285 0.596494 99.9285 0.323393 99.9285 0.00717163C86.0528 0.00717163 72.2561 0.00717163 58.4595 0.00717163C58.4595 13.8634 58.4595 27.6694 58.4595 41.54C65.962 41.54 73.4142 41.54 80.9024 41.54C82.9812 49.9415 82.2475 58.0554 78.7804 66.1406C79.1544 65.925 79.3199 65.8388 79.4709 65.731C84.3552 62.346 88.6351 58.3429 92.1886 53.5564C97.116 46.923 99.6624 39.3983 99.871 31.2341C100.123 21.1222 99.9285 10.9959 99.9285 0.869595Z" fill="#2F292B"/>
</svg>
