<svg width="81" height="84" viewBox="0 0 81 84" fill="none" xmlns="http://www.w3.org/2000/svg">
<circle cx="44.5" cy="47.5" r="36.5" fill="#B0C9F9"/>
<path d="M40.5 0C62.8414 0 81 18.1586 81 40.5C81 62.8414 62.8414 81 40.5 81C18.1586 81 0 62.8414 0 40.5C0 18.1586 18.1837 0 40.5 0ZM40.5 75.064C59.5603 75.064 75.064 59.5603 75.064 40.5C75.064 21.4397 59.5603 5.936 40.5 5.936C21.4397 5.936 5.936 21.4397 5.936 40.5C5.936 59.5603 21.4648 75.064 40.5 75.064Z" fill="#114CC0"/>
<path d="M50.8274 32.9532V32.8597C50.8274 26.7561 45.991 23 39.0898 23C35.109 23 31.9444 24.1223 29.4094 25.8599C27.9358 26.8698 27.8031 29.084 28.8827 30.5088L29.67 31.5479C30.7497 32.9721 32.6829 33.1075 34.2479 32.2431C35.6741 31.4552 37.1206 31.0287 38.4793 31.0287C40.7327 31.0287 42.0005 32.0142 42.0005 33.6111V33.6577C42.0005 35.677 40.0754 38.5625 34.6291 39.0317L34.4415 39.2429C34.338 39.3594 34.4687 40.8872 34.7326 42.6545L34.9493 44.0957C35.2133 45.863 36.6997 47.2954 38.2682 47.2954C39.8367 47.2954 41.235 46.6226 41.3895 45.7933C41.5458 44.9635 41.6717 44.2906 41.6717 44.2906C46.8824 43.0222 50.8274 38.8693 50.8274 32.9532Z" fill="#114CC0"/>
<path d="M36.7376 50.018C34.9506 50.018 33.5027 51.4666 33.5027 53.2536V54.7645C33.5027 56.5515 34.9513 58.0001 36.7376 58.0001H39.5156C41.3026 58.0001 42.7512 56.5515 42.7512 54.7645V53.2536C42.7512 51.4666 41.302 50.018 39.5156 50.018H36.7376Z" fill="#114CC0"/>
</svg> 