<svg width="986" height="206" viewBox="0 0 986 206" fill="none" xmlns="http://www.w3.org/2000/svg">
                    <path fill-rule="evenodd" clip-rule="evenodd" d="M723 2L966.986 204L984 35.5522L723 2Z" stroke="#E0777B" stroke-width="4" stroke-miterlimit="10" stroke-linecap="round" stroke-linejoin="round"></path>
                    <path d="M44.3385 29.6212C38.0837 33.875 33.7962 38.4327 31.4758 43.2942C29.1555 48.0545 27.9953 52.6122 27.9953 56.9673C27.9953 61.6263 29.2564 65.7788 31.7785 69.425C34.4015 72.9699 37.2767 76.059 40.4041 78.6923C41.8164 80.2115 42.5226 81.8827 42.5226 83.7058C42.5226 85.8327 41.8164 88.0103 40.4041 90.2385C38.9917 92.4667 37.1253 94.5429 34.805 96.4673C32.4847 98.3917 29.7608 99.9615 26.6334 101.177C23.6069 102.392 20.429 103 17.0998 103C13.8716 103 11.1477 102.19 8.92824 100.569C6.80967 98.9487 5.09465 96.9737 3.78315 94.6442C2.47166 92.3148 1.51326 89.884 0.907957 87.3519C0.302653 84.7186 0 82.3891 0 80.3635C0 74.4891 1.05928 68.868 3.17785 63.5C5.29641 58.0308 8.17161 52.916 11.8034 48.1558C15.4353 43.3955 19.6724 39.0404 24.5148 35.0904C29.3573 31.0391 34.4519 27.4436 39.7988 24.3038L44.3385 29.6212ZM97 29.3173C90.8461 33.5711 86.5585 38.1288 84.1373 42.9904C81.817 47.7506 80.6568 52.3083 80.6568 56.6635C80.6568 61.3224 81.9178 65.475 84.4399 69.1212C87.0629 72.666 89.9381 75.7551 93.0655 78.3885C94.4779 79.9077 95.1841 81.5788 95.1841 83.4019C95.1841 85.5289 94.4779 87.7064 93.0655 89.9346C91.6532 92.1628 89.7868 94.2391 87.4665 96.1635C85.1461 98.0878 82.4223 99.6577 79.2949 100.873C76.2683 102.088 73.0905 102.696 69.7613 102.696C66.533 102.696 63.8596 101.886 61.741 100.265C59.6225 98.6449 57.857 96.6699 56.4446 94.3404C55.1331 92.0109 54.1747 89.5801 53.5694 87.0481C53.065 84.4147 52.8128 82.0853 52.8128 80.0596C52.8128 74.1853 53.8721 68.5641 55.9906 63.1961C58.1092 57.7269 60.9844 52.6122 64.6162 47.8519C68.2481 43.0917 72.4347 38.7365 77.1763 34.7865C82.0187 30.7352 87.1134 27.1397 92.4602 24L97 29.3173Z" fill="#F2A94C"></path>
                    </svg>