<svg width="889" height="220" viewBox="0 0 889 220" fill="none" xmlns="http://www.w3.org/2000/svg">
<path fill-rule="evenodd" clip-rule="evenodd" d="M0 0L162 201H0V0Z" fill="#FFBDCC"/>
<path d="M837.348 213.851C844.634 208.932 849.629 203.721 852.332 198.216C855.153 192.595 856.563 187.266 856.563 182.23C856.563 176.842 855.035 172.099 851.98 168C849.042 163.784 845.751 160.153 842.108 157.108C840.345 155.234 839.463 153.302 839.463 151.311C839.463 148.851 840.286 146.333 841.931 143.757C843.577 141.18 845.751 138.779 848.454 136.554C851.157 134.329 854.271 132.514 857.797 131.108C861.44 129.703 865.201 129 869.08 129C872.723 129 875.837 129.937 878.423 131.811C881.008 133.685 883.065 135.968 884.593 138.662C886.121 141.356 887.237 144.225 887.942 147.27C888.647 150.198 889 152.833 889 155.176C889 162.086 887.766 168.644 885.298 174.851C882.83 181.059 879.48 186.914 875.25 192.419C871.019 197.923 866.083 203.018 860.441 207.703C854.918 212.27 849.042 216.369 842.813 220L837.348 213.851ZM776 213.851C783.287 208.932 788.281 203.721 790.984 198.216C793.805 192.595 795.215 187.266 795.215 182.23C795.215 176.842 793.687 172.099 790.632 168C787.694 163.784 784.403 160.153 780.76 157.108C778.997 155.351 778.115 153.419 778.115 151.311C778.115 148.851 778.938 146.333 780.583 143.757C782.229 141.18 784.403 138.779 787.106 136.554C789.809 134.329 792.924 132.514 796.449 131.108C800.093 129.703 803.853 129 807.732 129C811.375 129 814.489 129.937 817.075 131.811C819.66 133.685 821.717 135.968 823.245 138.662C824.773 141.356 825.889 144.225 826.594 147.27C827.3 150.198 827.652 152.833 827.652 155.176C827.652 162.086 826.418 168.644 823.95 174.851C821.482 181.059 818.133 186.914 813.902 192.419C809.671 197.923 804.735 203.018 799.094 207.703C793.57 212.27 787.694 216.369 781.465 220L776 213.851Z" fill="#F2A94C"/>
</svg>
