<svg width="127" height="89" viewBox="0 0 127 89" fill="none" xmlns="http://www.w3.org/2000/svg">
<path d="M81.6989 48.7448L45.2111 12.0065C41.3703 8.06633 34.9721 7.97314 30.9845 11.846C29.5947 13.14 28.6398 14.8251 28.1877 16.6008L14.6132 67.3101C13.8847 72.7818 17.7901 77.8038 23.3072 78.4663C24.4034 78.5715 25.5332 78.5246 26.6159 78.2999L76.9396 64.6207C79.4815 63.7832 81.5553 62.0101 82.8036 59.6222C84.05 57.2274 84.2853 54.4918 83.4704 51.9647C83.1118 50.8858 82.5921 49.8946 81.6989 48.7448Z" fill="url(#paint0_linear)"/>
<g filter="url(#filter0_f)">
<path d="M67.4698 51.9882L46.5504 30.9252C44.3484 28.6662 40.6801 28.6127 38.3939 30.8331C37.5971 31.575 37.0496 32.5412 36.7905 33.5592L29.0078 62.6322C28.5902 65.7692 30.8293 68.6484 33.9924 69.0283C34.6208 69.0886 35.2685 69.0617 35.8893 68.9329L64.7412 61.0903C66.1985 60.6101 67.3875 59.5935 68.1031 58.2245C68.8177 56.8515 68.9526 55.2831 68.4855 53.8342C68.2798 53.2157 67.9819 52.6474 67.4698 51.9882Z" fill="#E31313"/>
</g>
<g filter="url(#filter1_b)">
<path d="M124.831 66.709L91.3867 8.18622C87.8904 1.93447 79.9317 -0.363969 73.6752 3.13425C71.513 4.28347 69.7649 6.07166 68.6148 8.14485L34.94 67.1228C32.2258 73.7377 35.4461 81.3685 42.1166 84.0806C43.4507 84.5863 44.8768 84.9127 46.303 85H113.653C117.103 84.8161 120.277 83.2992 122.623 80.7295C124.969 78.1507 126.166 74.7995 125.982 71.3519C125.89 69.8763 125.567 68.4558 124.831 66.709Z" fill="#FF7474" fill-opacity="0.35"/>
<path d="M125.292 66.5149C125.289 66.5076 125.286 66.5003 125.282 66.4931C125.277 66.4822 125.272 66.4715 125.266 66.461L91.8231 7.94217C91.8227 7.94149 91.8223 7.94082 91.8219 7.94015C88.1927 1.45323 79.9347 -0.935164 73.4358 2.69524C71.1865 3.89204 69.3725 5.74959 68.1791 7.89952C68.1786 7.90044 68.1781 7.90137 68.1776 7.9023L34.5058 66.8748C34.4951 66.8936 34.4856 66.913 34.4774 66.933C31.6573 73.806 35.0035 81.7283 41.9283 84.5438L41.9282 84.5439L41.9394 84.5482C43.3162 85.07 44.7917 85.4084 46.2724 85.4991C46.2826 85.4997 46.2928 85.5 46.303 85.5H113.653C113.661 85.5 113.67 85.4998 113.679 85.4993C117.262 85.3083 120.559 83.7318 122.993 81.0667L122.993 81.066C125.429 78.3889 126.672 74.9072 126.481 71.3252L126.481 71.3208C126.385 69.784 126.048 68.3086 125.292 66.5149Z" stroke="url(#paint1_linear)" stroke-linecap="round" stroke-linejoin="round"/>
</g>
<g filter="url(#filter2_bd)">
<mask id="path-5-inside-1" fill="white">
<path fill-rule="evenodd" clip-rule="evenodd" d="M79.9792 50.805C82.1874 50.805 83.9816 48.9617 83.9816 46.7552V33.7506C83.9816 31.5395 82.1874 29.7513 79.9792 29.7513C77.771 29.7513 75.9309 31.5395 75.9309 33.7506V46.7552C75.9309 48.9617 77.771 50.805 79.9792 50.805ZM75.9309 62.479C75.9309 64.6809 77.771 66.5242 79.9792 66.5242C82.1874 66.5242 83.9816 64.6809 83.9816 62.4284C83.9816 60.2265 82.1874 58.4291 79.9792 58.4291C77.771 58.4291 75.9309 60.2679 75.9309 62.479Z"/>
</mask>
<path fill-rule="evenodd" clip-rule="evenodd" d="M79.9792 50.805C82.1874 50.805 83.9816 48.9617 83.9816 46.7552V33.7506C83.9816 31.5395 82.1874 29.7513 79.9792 29.7513C77.771 29.7513 75.9309 31.5395 75.9309 33.7506V46.7552C75.9309 48.9617 77.771 50.805 79.9792 50.805ZM75.9309 62.479C75.9309 64.6809 77.771 66.5242 79.9792 66.5242C82.1874 66.5242 83.9816 64.6809 83.9816 62.4284C83.9816 60.2265 82.1874 58.4291 79.9792 58.4291C77.771 58.4291 75.9309 60.2679 75.9309 62.479Z" fill="url(#paint2_linear)"/>
<path d="M83.5816 46.7552C83.5816 48.747 81.9603 50.405 79.9792 50.405V51.205C82.4145 51.205 84.3816 49.1763 84.3816 46.7552H83.5816ZM83.5816 33.7506V46.7552H84.3816V33.7506H83.5816ZM79.9792 30.1513C81.9671 30.1513 83.5816 31.761 83.5816 33.7506H84.3816C84.3816 31.318 82.4077 29.3513 79.9792 29.3513V30.1513ZM76.3309 33.7506C76.3309 31.7669 77.9854 30.1513 79.9792 30.1513V29.3513C77.5567 29.3513 75.5309 31.3121 75.5309 33.7506H76.3309ZM76.3309 46.7552V33.7506H75.5309V46.7552H76.3309ZM79.9792 50.405C77.9923 50.405 76.3309 48.7411 76.3309 46.7552H75.5309C75.5309 49.1823 77.5498 51.205 79.9792 51.205V50.405ZM79.9792 66.1242C77.992 66.1242 76.3309 64.46 76.3309 62.479H75.5309C75.5309 64.9018 77.5501 66.9242 79.9792 66.9242V66.1242ZM83.5816 62.4284C83.5816 64.4692 81.9574 66.1242 79.9792 66.1242V66.9242C82.4174 66.9242 84.3816 64.8926 84.3816 62.4284H83.5816ZM79.9792 58.8291C81.9665 58.8291 83.5816 60.4474 83.5816 62.4284H84.3816C84.3816 60.0056 82.4083 58.0291 79.9792 58.0291V58.8291ZM76.3309 62.479C76.3309 60.4888 77.992 58.8291 79.9792 58.8291V58.0291C77.5501 58.0291 75.5309 60.047 75.5309 62.479H76.3309Z" fill="url(#paint3_linear)" mask="url(#path-5-inside-1)"/>
</g>
<defs>
<filter id="filter0_f" x="9.95771" y="10.199" width="77.8009" height="77.8601" filterUnits="userSpaceOnUse" color-interpolation-filters="sRGB">
<feFlood flood-opacity="0" result="BackgroundImageFix"/>
<feBlend mode="normal" in="SourceGraphic" in2="BackgroundImageFix" result="shape"/>
<feGaussianBlur stdDeviation="9.5" result="effect1_foregroundBlur"/>
</filter>
<filter id="filter1_b" x="8.97647" y="-23.5042" width="142.024" height="133.504" filterUnits="userSpaceOnUse" color-interpolation-filters="sRGB">
<feFlood flood-opacity="0" result="BackgroundImageFix"/>
<feGaussianBlur in="BackgroundImage" stdDeviation="12"/>
<feComposite in2="SourceAlpha" operator="in" result="effect1_backgroundBlur"/>
<feBlend mode="normal" in="SourceGraphic" in2="effect1_backgroundBlur" result="shape"/>
</filter>
<filter id="filter2_bd" x="60.9309" y="14.7513" width="38.0507" height="66.7729" filterUnits="userSpaceOnUse" color-interpolation-filters="sRGB">
<feFlood flood-opacity="0" result="BackgroundImageFix"/>
<feGaussianBlur in="BackgroundImage" stdDeviation="7.5"/>
<feComposite in2="SourceAlpha" operator="in" result="effect1_backgroundBlur"/>
<feColorMatrix in="SourceAlpha" type="matrix" values="0 0 0 0 0 0 0 0 0 0 0 0 0 0 0 0 0 0 127 0" result="hardAlpha"/>
<feOffset dx="5" dy="5"/>
<feGaussianBlur stdDeviation="5"/>
<feColorMatrix type="matrix" values="0 0 0 0 1 0 0 0 0 0.376471 0 0 0 0 0.376471 0 0 0 1 0"/>
<feBlend mode="normal" in2="effect1_backgroundBlur" result="effect2_dropShadow"/>
<feBlend mode="normal" in="SourceGraphic" in2="effect2_dropShadow" result="shape"/>
</filter>
<linearGradient id="paint0_linear" x1="49.7375" y1="43.1974" x2="-0.0314135" y2="89.993" gradientUnits="userSpaceOnUse">
<stop stop-color="#FF7575"/>
<stop offset="1" stop-color="#FF1919"/>
</linearGradient>
<linearGradient id="paint1_linear" x1="48.6255" y1="11.2245" x2="100.581" y2="82.1382" gradientUnits="userSpaceOnUse">
<stop stop-color="white" stop-opacity="0.25"/>
<stop offset="1" stop-color="white" stop-opacity="0"/>
</linearGradient>
<linearGradient id="paint2_linear" x1="79.9571" y1="31.8256" x2="72.5643" y2="31.1466" gradientUnits="userSpaceOnUse">
<stop stop-color="white" stop-opacity="0.75"/>
<stop offset="1" stop-color="white" stop-opacity="0.2"/>
</linearGradient>
<linearGradient id="paint3_linear" x1="77.2124" y1="34.0354" x2="89.3342" y2="37.3222" gradientUnits="userSpaceOnUse">
<stop stop-color="white" stop-opacity="0.25"/>
<stop offset="1" stop-color="white" stop-opacity="0"/>
</linearGradient>
</defs>
</svg>
