<svg width="137" height="137" viewBox="0 0 137 137" fill="none" xmlns="http://www.w3.org/2000/svg">
<circle cx="68.5" cy="68.5" r="68.5" fill="#255DCC"/>
<path d="M67.7781 36C55.5951 36 50 43.1596 50 47.9921C50 51.4826 52.9779 53.0934 55.4146 53.0934C60.2876 53.0934 58.3024 46.2023 67.5072 46.2023C72.0196 46.2023 75.6294 48.1715 75.6294 52.2881C75.6294 57.1209 70.5757 59.8951 67.5976 62.4009C64.9807 64.6383 61.5513 68.3077 61.5513 76.0041C61.5513 80.6577 62.8145 82 66.5146 82C70.9364 82 71.8389 80.0313 71.8389 78.3309C71.8389 73.677 71.9292 70.9921 76.8926 67.1441C79.3293 65.2647 87 59.1789 87 50.7666C87 42.3543 79.3291 36.0003 67.7781 36Z" fill="white"/>
<path d="M66.4575 89C62.8891 89 60 91.9546 60 95.5C60 98.9609 62.804 102 66.4575 102C70.1109 102 73 98.9611 73 95.5C73 91.9546 70.0259 89 66.4575 89Z" fill="white"/>
</svg>
