<svg width="81" height="84" viewBox="0 0 81 84" fill="none" xmlns="http://www.w3.org/2000/svg">
<circle cx="44.5" cy="47.5" r="36.5" fill="#EE1B24"/>
<path d="M40.5 0C62.8414 0 81 18.1586 81 40.5C81 62.8414 62.8414 81 40.5 81C18.1586 81 0 62.8414 0 40.5C0 18.1586 18.1837 0 40.5 0ZM40.5 75.064C59.5603 75.064 75.064 59.5603 75.064 40.5C75.064 21.4397 59.5603 5.936 40.5 5.936C21.4397 5.936 5.936 21.4397 5.936 40.5C5.936 59.5603 21.4648 75.064 40.5 75.064Z" fill="black"/>
<path d="M45.94 22.88C45.94 22.6 45.87 21.97 45.87 21.06C45.87 20.22 45.87 19.8 45.87 19.66C45.03 19.31 44.05 19.1 43.07 19.1C42.86 19.1 42.51 19.1 42.02 19.1C41.46 19.17 41.18 19.17 41.11 19.17C39.43 27.15 38.66 35.97 38.66 45.49C38.66 46.89 38.66 47.94 38.8 48.64C39.22 48.85 40.06 48.92 41.32 48.92C42.23 48.92 42.79 48.92 43 48.85C43.98 46.33 44.75 41.29 45.38 33.8C45.73 29.32 45.94 25.68 45.94 22.88ZM45.8 58.72C42.86 56.83 40.41 55.85 38.38 55.71C36.63 58.72 35.58 61.1 35.3 62.85C37.33 64.39 39.78 65.44 42.72 66.14C43.21 65.58 43.84 64.46 44.61 62.64C45.38 60.82 45.8 59.56 45.8 58.72Z" fill="black"/>
</svg>