<svg width="137" height="137" viewBox="0 0 137 137" fill="none" xmlns="http://www.w3.org/2000/svg">
<circle cx="68.5" cy="68.5" r="68.5" fill="#DC0000"/>
<path d="M97.6749 51.0326C98.1505 50.1056 98.0704 49.0547 97.654 48.1823C97.7713 47.1896 97.5115 46.1817 96.5719 45.4086C95.6971 44.6891 94.8225 43.9691 93.9483 43.2494C92.4109 41.9844 90.0037 41.5852 88.5084 43.2494C81.7165 50.8073 74.6141 58.037 67.2513 65.0035C61.7773 59.8899 56.2368 54.8458 50.736 49.7951C48.8054 48.0219 46.011 48.5783 44.7963 50.6907C43.0271 51.5688 41.5929 52.7136 40.4071 54.6675C39.8424 55.5985 39.8864 56.7736 40.4071 57.7079C43.9583 64.0749 50.8224 69.6729 56.4661 74.8246C55.7109 75.5006 54.9613 76.183 54.1909 76.8448C46.5872 83.3744 41.4584 87.5174 50.9738 94.2125C51.1022 94.3028 51.2331 94.2829 51.3634 94.3357C51.5457 94.4198 51.7206 94.479 51.9228 94.5122C51.9856 94.5146 52.0443 94.5252 52.1062 94.5204C52.302 94.5363 52.4937 94.5862 52.6922 94.5472C57.808 93.5442 62.5655 89.5352 66.8819 85.1205C71.0868 89.2651 75.5642 93.2247 80.4876 95.5741C81.6598 96.1336 83.0573 95.8075 83.9597 95.0249C85.4729 95.1392 86.8526 94.1989 87.545 92.8476C87.6476 92.7842 87.7136 92.748 87.8247 92.6786C90.0246 91.3043 90.2257 88.5672 88.5978 86.6806C84.922 82.421 81.0145 78.3718 77.0312 74.3944C84.2034 67.3864 93.1589 59.8283 97.6749 51.0326Z" fill="white"/>
</svg>
