<svg width="304" height="397" viewBox="0 0 304 397" fill="none" xmlns="http://www.w3.org/2000/svg">
<g filter="url(#filter0_dddddd)">
<path fill-rule="evenodd" clip-rule="evenodd" d="M219.61 60.2518L219.639 60.804C221.462 95.7566 199.483 121.505 169.153 130.602C169.153 130.602 168.618 134.617 167.952 139.568C167.297 144.514 159.26 148.919 150.012 149.402C140.765 149.884 131.559 141.88 129.458 131.519L127.736 123.071C125.635 112.711 124.394 103.725 124.968 103.005L126.009 101.699C157.975 97.252 168.436 79.6117 167.813 67.682L167.799 67.4062C167.307 57.972 159.528 52.5394 146.242 53.2327C138.231 53.6507 129.835 56.6155 121.669 61.7092C112.708 67.2979 101.268 67.0927 94.4638 59.0104L89.5017 53.1138C82.6971 45.0278 82.7967 31.9058 91.1738 25.4857C105.584 14.44 123.896 6.83577 147.367 5.61107C188.055 3.48796 217.728 24.1912 219.61 60.2518ZM124.21 185.783C123.663 175.294 131.646 166.352 142.046 165.81L158.215 164.966C168.611 164.423 177.49 172.486 178.037 182.974L178.5 191.842C179.047 202.33 171.06 211.272 160.659 211.815L144.491 212.659C134.095 213.201 125.22 205.139 124.673 194.65L124.21 185.783Z" fill="white"/>
<path d="M169.153 130.602L168.004 126.771L165.529 127.513L165.188 130.074L169.153 130.602ZM167.952 139.568L163.987 139.035L163.986 139.043L167.952 139.568ZM129.458 131.519L133.378 130.724L133.377 130.72L129.458 131.519ZM127.736 123.071L123.816 123.866L123.817 123.87L127.736 123.071ZM124.968 103.005L128.095 105.5L128.096 105.498L124.968 103.005ZM126.009 101.699L125.458 97.7376L123.876 97.9577L122.881 99.2061L126.009 101.699ZM121.669 61.7092L123.785 65.1032L123.786 65.1031L121.669 61.7092ZM94.4638 59.0104L91.4032 61.5859L91.4038 61.5865L94.4638 59.0104ZM89.5017 53.1138L92.5622 50.5383L92.5622 50.5383L89.5017 53.1138ZM91.1738 25.4857L93.6069 28.6606L93.6072 28.6604L91.1738 25.4857ZM178.037 182.974L182.032 182.766L178.037 182.974ZM178.5 191.842L174.505 192.05L178.5 191.842ZM160.659 211.815L160.868 215.81L160.659 211.815ZM144.491 212.659L144.283 208.664L144.491 212.659ZM223.633 60.5956L223.604 60.0434L215.615 60.4603L215.644 61.0125L223.633 60.5956ZM170.302 134.434C202.165 124.877 225.565 97.6228 223.633 60.5956L215.644 61.0125C217.36 93.8903 196.802 118.134 168.004 126.771L170.302 134.434ZM171.916 140.101C172.249 137.624 172.549 135.382 172.767 133.759C172.875 132.947 172.963 132.29 173.023 131.836C173.054 131.609 173.077 131.433 173.093 131.313C173.101 131.254 173.107 131.208 173.111 131.177C173.113 131.162 173.115 131.15 173.116 131.143C173.117 131.139 173.117 131.136 173.117 131.134C173.117 131.133 173.117 131.132 173.117 131.132C173.117 131.131 173.118 131.131 173.118 131.131C173.118 131.131 173.118 131.131 173.118 131.131C173.118 131.131 173.118 131.131 169.153 130.602C165.188 130.074 165.188 130.074 165.188 130.074C165.188 130.074 165.188 130.074 165.188 130.074C165.188 130.074 165.188 130.074 165.188 130.075C165.188 130.075 165.187 130.076 165.187 130.077C165.187 130.079 165.187 130.082 165.186 130.085C165.185 130.093 165.184 130.105 165.182 130.12C165.177 130.151 165.171 130.196 165.163 130.256C165.148 130.375 165.124 130.551 165.094 130.778C165.033 131.231 164.946 131.887 164.837 132.698C164.62 134.32 164.32 136.56 163.987 139.035L171.916 140.101ZM150.221 153.396C155.374 153.128 160.293 151.768 164.127 149.666C167.756 147.677 171.337 144.477 171.917 140.093L163.986 139.043C163.912 139.605 163.147 141.081 160.281 142.651C157.621 144.109 153.898 145.194 149.804 145.407L150.221 153.396ZM125.538 132.314C127.951 144.213 138.609 154.002 150.221 153.396L149.804 145.407C142.92 145.767 135.167 139.546 133.378 130.724L125.538 132.314ZM123.817 123.87L125.539 132.318L133.377 130.72L131.656 122.273L123.817 123.87ZM121.842 100.51C121.188 101.33 121.011 102.194 120.962 102.438C120.884 102.818 120.855 103.176 120.841 103.447C120.813 104 120.833 104.621 120.87 105.234C120.948 106.486 121.13 108.113 121.386 109.97C121.902 113.704 122.753 118.626 123.816 123.866L131.656 122.276C130.618 117.156 129.798 112.405 129.311 108.876C129.066 107.101 128.915 105.7 128.855 104.74C128.825 104.248 128.825 103.968 128.831 103.851C128.834 103.787 128.835 103.868 128.801 104.033C128.796 104.06 128.677 104.77 128.095 105.5L121.842 100.51ZM122.881 99.2061L121.84 100.512L128.096 105.498L129.137 104.193L122.881 99.2061ZM163.819 67.8904C164.297 77.0584 156.131 93.47 125.458 97.7376L126.56 105.661C159.819 101.034 172.574 82.1651 171.808 67.4735L163.819 67.8904ZM163.804 67.6147L163.819 67.8904L171.808 67.4735L171.793 67.1978L163.804 67.6147ZM146.45 57.2272C152.58 56.9074 156.889 58.0386 159.595 59.8473C162.149 61.5538 163.62 64.0789 163.804 67.6147L171.793 67.1978C171.486 61.2994 168.821 56.391 164.041 53.196C159.413 50.1032 153.19 48.8647 146.033 49.2381L146.45 57.2272ZM123.786 65.1031C131.52 60.2784 139.268 57.602 146.45 57.2272L146.033 49.2381C137.195 49.6993 128.149 52.9525 119.552 58.3154L123.786 65.1031ZM91.4038 61.5865C99.8434 71.6112 113.648 71.426 123.785 65.1032L119.552 58.3152C111.768 63.1698 102.693 62.5741 97.5237 56.4342L91.4038 61.5865ZM86.4412 55.6893L91.4032 61.5859L97.5243 56.4349L92.5622 50.5383L86.4412 55.6893ZM88.7406 22.3109C78.1663 30.4149 78.5021 46.2552 86.4412 55.6893L92.5622 50.5383C86.8921 43.8004 87.4271 33.3968 93.6069 28.6606L88.7406 22.3109ZM147.158 1.61651C122.878 2.88342 103.791 10.7744 88.7403 22.3111L93.6072 28.6604C107.377 18.1056 124.913 10.7881 147.575 9.60564L147.158 1.61651ZM223.604 60.0434C222.604 40.8647 214.155 25.5514 200.419 15.3961C186.764 5.30171 168.194 0.518843 147.158 1.61651L147.575 9.60564C167.227 8.58018 183.838 13.0874 195.663 21.829C207.405 30.5097 214.734 43.5784 215.615 60.4603L223.604 60.0434ZM141.838 161.815C129.199 162.475 119.555 173.33 120.216 185.991L128.205 185.574C127.771 177.259 134.093 170.23 142.255 169.804L141.838 161.815ZM158.006 160.971L141.838 161.815L142.255 169.804L158.423 168.961L158.006 160.971ZM182.032 182.766C181.371 170.102 170.64 160.312 158.006 160.971L158.423 168.961C166.583 168.535 173.609 174.869 174.042 183.183L182.032 182.766ZM182.494 191.633L182.032 182.766L174.042 183.183L174.505 192.05L182.494 191.633ZM160.868 215.81C173.506 215.15 183.155 204.296 182.494 191.633L174.505 192.05C174.939 200.364 168.613 207.395 160.451 207.821L160.868 215.81ZM144.699 216.653L160.868 215.81L160.451 207.821L144.283 208.664L144.699 216.653ZM120.678 194.859C121.339 207.521 132.065 217.313 144.699 216.653L144.283 208.664C136.125 209.09 129.101 202.757 128.668 194.442L120.678 194.859ZM120.216 185.991L120.678 194.859L128.668 194.442L128.205 185.574L120.216 185.991Z" fill="#0348CE"/>
</g>
<defs>
<filter id="filter0_dddddd" x="0.628906" y="0.166106" width="303.116" height="396.519" filterUnits="userSpaceOnUse" color-interpolation-filters="sRGB">
<feFlood flood-opacity="0" result="BackgroundImageFix"/>
<feColorMatrix in="SourceAlpha" type="matrix" values="0 0 0 0 0 0 0 0 0 0 0 0 0 0 0 0 0 0 127 0" result="hardAlpha"/>
<feOffset dy="1.85185"/>
<feGaussianBlur stdDeviation="1.57407"/>
<feColorMatrix type="matrix" values="0 0 0 0 0 0 0 0 0 0 0 0 0 0 0 0 0 0 0.0168519 0"/>
<feBlend mode="normal" in2="BackgroundImageFix" result="effect1_dropShadow"/>
<feColorMatrix in="SourceAlpha" type="matrix" values="0 0 0 0 0 0 0 0 0 0 0 0 0 0 0 0 0 0 127 0" result="hardAlpha"/>
<feOffset dy="8.14815"/>
<feGaussianBlur stdDeviation="3.25926"/>
<feColorMatrix type="matrix" values="0 0 0 0 0 0 0 0 0 0 0 0 0 0 0 0 0 0 0.0274815 0"/>
<feBlend mode="normal" in2="effect1_dropShadow" result="effect2_dropShadow"/>
<feColorMatrix in="SourceAlpha" type="matrix" values="0 0 0 0 0 0 0 0 0 0 0 0 0 0 0 0 0 0 127 0" result="hardAlpha"/>
<feOffset dy="20"/>
<feGaussianBlur stdDeviation="6.5"/>
<feColorMatrix type="matrix" values="0 0 0 0 0 0 0 0 0 0 0 0 0 0 0 0 0 0 0.035 0"/>
<feBlend mode="normal" in2="effect2_dropShadow" result="effect3_dropShadow"/>
<feColorMatrix in="SourceAlpha" type="matrix" values="0 0 0 0 0 0 0 0 0 0 0 0 0 0 0 0 0 0 127 0" result="hardAlpha"/>
<feOffset dy="38.5185"/>
<feGaussianBlur stdDeviation="12.7407"/>
<feColorMatrix type="matrix" values="0 0 0 0 0 0 0 0 0 0 0 0 0 0 0 0 0 0 0.0425185 0"/>
<feBlend mode="normal" in2="effect3_dropShadow" result="effect4_dropShadow"/>
<feColorMatrix in="SourceAlpha" type="matrix" values="0 0 0 0 0 0 0 0 0 0 0 0 0 0 0 0 0 0 127 0" result="hardAlpha"/>
<feOffset dy="64.8148"/>
<feGaussianBlur stdDeviation="23.4259"/>
<feColorMatrix type="matrix" values="0 0 0 0 0 0 0 0 0 0 0 0 0 0 0 0 0 0 0.0531481 0"/>
<feBlend mode="normal" in2="effect4_dropShadow" result="effect5_dropShadow"/>
<feColorMatrix in="SourceAlpha" type="matrix" values="0 0 0 0 0 0 0 0 0 0 0 0 0 0 0 0 0 0 127 0" result="hardAlpha"/>
<feOffset dy="100"/>
<feGaussianBlur stdDeviation="40"/>
<feColorMatrix type="matrix" values="0 0 0 0 0.0802778 0 0 0 0 0.0884 0 0 0 0 0.283333 0 0 0 0.07 0"/>
<feBlend mode="normal" in2="effect5_dropShadow" result="effect6_dropShadow"/>
<feBlend mode="normal" in="SourceGraphic" in2="effect6_dropShadow" result="shape"/>
</filter>
</defs>
</svg>
