<svg width="90" height="90" viewBox="0 0 90 90" fill="none" xmlns="http://www.w3.org/2000/svg">
<circle cx="45" cy="45" r="45" fill="#E8CEB9"/>
<path d="M42.0005 26.8421C38.0113 29.3456 34.9098 32.4805 32.8818 36.7482C37.2387 37.22 40.5073 39.144 42.0859 43.2112C43.5679 47.0369 42.9402 50.6473 40.0505 53.6299C37.0641 56.709 33.387 57.5819 29.3606 56.1147C25.4717 54.6959 23.2951 51.7207 22.9534 47.6275C22.1437 37.922 29.8323 28.4987 39.5119 27.1727C40.3402 27.0576 41.1685 26.9536 42.0005 26.8421Z" fill="#CE9F78"/>
<path d="M67.035 26.8421C63.0458 29.3456 59.9444 32.4805 57.9164 36.7482C62.2733 37.22 65.5419 39.144 67.1205 43.2112C68.6025 47.0369 67.9747 50.6473 65.085 53.6299C62.0987 56.709 58.4215 57.5819 54.3952 56.1147C50.5063 54.6959 48.3297 51.7207 47.988 47.6275C47.1782 37.922 54.8669 28.4987 64.5464 27.1727C65.3747 27.0576 66.2067 26.9536 67.035 26.8421Z" fill="#CE9F78"/>
</svg>
