<svg width="310" height="315" viewBox="0 0 310 315" fill="none" xmlns="http://www.w3.org/2000/svg">
<g filter="url(#filter0_dddddd)">
<path d="M194.741 77.5633C191.49 61.7928 183.451 52.1106 161.805 50.3584C141.801 48.8741 104.969 52.0969 81.6676 58.2402C59.7401 63.9711 48.8829 75.9553 48.2095 90.6263C47.7284 103.188 47.4811 118.889 54.4833 141.394C60.5578 162.098 71.4013 172.131 91.6933 172.873C92.7997 172.914 93.6724 173.828 93.6724 174.935V197.426C93.6724 202.751 99.7469 205.802 104.021 202.614L140.09 175.67C141.451 174.653 143.107 174.124 144.804 174.165C148.281 174.247 150.577 174.296 150.948 174.296C172.751 174.337 184.351 161.686 190.528 135.127C196.864 109.324 197.036 89.5887 194.741 77.5633Z" fill="#FC0000"/>
</g>
<path d="M150.675 97.0326C151.15 96.1056 151.07 95.0547 150.654 94.1823C150.771 93.1896 150.511 92.1817 149.572 91.4086C148.697 90.689 147.822 89.969 146.948 89.2493C145.411 87.9844 143.004 87.5851 141.508 89.2493C134.716 96.8073 127.614 104.037 120.251 111.003C114.777 105.89 109.237 100.846 103.736 95.795C101.805 94.0219 99.0109 94.5783 97.7963 96.6906C96.027 97.5688 94.5929 98.7136 93.407 100.667C92.8424 101.598 92.8864 102.774 93.407 103.708C96.9582 110.075 103.822 115.673 109.466 120.825C108.711 121.501 107.961 122.183 107.191 122.845C99.5872 129.374 94.4584 133.517 103.974 140.212C104.102 140.303 104.233 140.283 104.363 140.336C104.546 140.42 104.721 140.479 104.923 140.512C104.986 140.515 105.044 140.525 105.106 140.52C105.302 140.536 105.494 140.586 105.692 140.547C110.808 139.544 115.565 135.535 119.882 131.12C124.087 135.265 128.564 139.225 133.488 141.574C134.66 142.134 136.057 141.807 136.96 141.025C138.473 141.139 139.853 140.199 140.545 138.848C140.648 138.784 140.714 138.748 140.825 138.679C143.025 137.304 143.226 134.567 141.598 132.681C137.922 128.421 134.014 124.372 130.031 120.394C137.203 113.386 146.159 105.828 150.675 97.0326Z" fill="white"/>
<defs>
<filter id="filter0_dddddd" x="0.96109" y="0.636034" width="308.088" height="313.912" filterUnits="userSpaceOnUse" color-interpolation-filters="sRGB">
<feFlood flood-opacity="0" result="BackgroundImageFix"/>
<feColorMatrix in="SourceAlpha" type="matrix" values="0 0 0 0 0 0 0 0 0 0 0 0 0 0 0 0 0 0 127 0" result="hardAlpha"/>
<feOffset dx="0.610391" dy="0.567334"/>
<feGaussianBlur stdDeviation="1.57407"/>
<feColorMatrix type="matrix" values="0 0 0 0 1 0 0 0 0 0 0 0 0 0 0 0 0 0 0.0312963 0"/>
<feBlend mode="normal" in2="BackgroundImageFix" result="effect1_dropShadow"/>
<feColorMatrix in="SourceAlpha" type="matrix" values="0 0 0 0 0 0 0 0 0 0 0 0 0 0 0 0 0 0 127 0" result="hardAlpha"/>
<feOffset dx="2.68572" dy="2.49627"/>
<feGaussianBlur stdDeviation="3.25926"/>
<feColorMatrix type="matrix" values="0 0 0 0 1 0 0 0 0 0 0 0 0 0 0 0 0 0 0.051037 0"/>
<feBlend mode="normal" in2="effect1_dropShadow" result="effect2_dropShadow"/>
<feColorMatrix in="SourceAlpha" type="matrix" values="0 0 0 0 0 0 0 0 0 0 0 0 0 0 0 0 0 0 127 0" result="hardAlpha"/>
<feOffset dx="6.59222" dy="6.12721"/>
<feGaussianBlur stdDeviation="6.5"/>
<feColorMatrix type="matrix" values="0 0 0 0 1 0 0 0 0 0 0 0 0 0 0 0 0 0 0.065 0"/>
<feBlend mode="normal" in2="effect2_dropShadow" result="effect3_dropShadow"/>
<feColorMatrix in="SourceAlpha" type="matrix" values="0 0 0 0 0 0 0 0 0 0 0 0 0 0 0 0 0 0 127 0" result="hardAlpha"/>
<feOffset dx="12.6961" dy="11.8005"/>
<feGaussianBlur stdDeviation="12.7407"/>
<feColorMatrix type="matrix" values="0 0 0 0 1 0 0 0 0 0 0 0 0 0 0 0 0 0 0.078963 0"/>
<feBlend mode="normal" in2="effect3_dropShadow" result="effect4_dropShadow"/>
<feColorMatrix in="SourceAlpha" type="matrix" values="0 0 0 0 0 0 0 0 0 0 0 0 0 0 0 0 0 0 127 0" result="hardAlpha"/>
<feOffset dx="21.3637" dy="19.8567"/>
<feGaussianBlur stdDeviation="23.4259"/>
<feColorMatrix type="matrix" values="0 0 0 0 1 0 0 0 0 0 0 0 0 0 0 0 0 0 0.0987037 0"/>
<feBlend mode="normal" in2="effect4_dropShadow" result="effect5_dropShadow"/>
<feColorMatrix in="SourceAlpha" type="matrix" values="0 0 0 0 0 0 0 0 0 0 0 0 0 0 0 0 0 0 127 0" result="hardAlpha"/>
<feOffset dx="32.9611" dy="30.636"/>
<feGaussianBlur stdDeviation="40"/>
<feColorMatrix type="matrix" values="0 0 0 0 1 0 0 0 0 0 0 0 0 0 0 0 0 0 0.13 0"/>
<feBlend mode="normal" in2="effect5_dropShadow" result="effect6_dropShadow"/>
<feBlend mode="normal" in="SourceGraphic" in2="effect6_dropShadow" result="shape"/>
</filter>
</defs>
</svg>
