<svg width="139" height="139" viewBox="0 0 139 139" fill="none" xmlns="http://www.w3.org/2000/svg">
<circle cx="69.5" cy="69.5" r="68.5" fill="#4AAE30"/>
<path fill-rule="evenodd" clip-rule="evenodd" d="M45.5216 93.8827L38.1938 93.8956C35.931 93.8996 34.0919 92.067 34.0879 89.8043L34.0372 61.1295C34.0332 58.8667 35.8657 57.0276 38.1285 57.0236L45.4563 57.0107C47.7191 57.0067 49.5582 58.8392 49.5622 61.102L49.613 89.7768C49.617 92.0396 47.7844 93.8787 45.5216 93.8827Z" fill="white"/>
<path fill-rule="evenodd" clip-rule="evenodd" d="M55.561 61.1538L69.6911 42.6888C72.3204 39.2492 77.4668 39.1547 80.2245 42.4916C81.2552 43.7357 81.8169 45.3028 81.8198 46.9174L81.8422 59.613L93.8586 59.5917C96.1913 59.5876 98.3707 60.7481 99.6705 62.6826L100.951 64.586C102.099 66.2956 102.436 68.4258 101.869 70.4024L96.6271 88.7391C95.7708 91.733 93.0381 93.7988 89.9253 93.8043L65.5161 93.8475C63.5754 93.851 61.7188 93.0469 60.3966 91.6287L55.6058 86.4906" fill="white"/>
</svg>
