<svg width="102" height="68" viewBox="0 0 102 68" fill="none" xmlns="http://www.w3.org/2000/svg">
<path d="M42.2615 0C28.1597 0 14.0945 0 0 0C0 14.1887 0 28.3186 0 42.5442C7.72594 42.5442 15.3932 42.5442 23.0898 42.5442C25.2982 51.2649 24.5425 59.6619 20.962 68C21.2775 67.8087 21.4169 67.7277 21.549 67.6394C27.1105 63.761 31.9823 59.1909 35.7315 53.5022C39.8403 47.2762 42.2542 40.4762 42.2909 32.955C42.3423 22.1883 42.3056 11.4143 42.3056 0.647619C42.3056 0.441558 42.2762 0.242857 42.2615 0Z" fill="black"/>
<path d="M101.927 0.890441C101.927 0.610787 101.927 0.331134 101.927 0.00732422C87.7734 0.00732422 73.7009 0.00732422 59.6284 0.00732422C59.6284 14.1961 59.6284 28.3333 59.6284 42.5368C67.281 42.5368 74.8822 42.5368 82.5201 42.5368C84.6405 51.1398 83.8921 59.4484 80.3557 67.7277C80.7372 67.5069 80.9059 67.4186 81.06 67.3082C86.0419 63.842 90.4074 59.7428 94.032 54.8415C99.0579 48.0489 101.655 40.3437 101.868 31.9835C102.125 21.629 101.927 11.2597 101.927 0.890441Z" fill="black"/>
</svg>
