<svg width="137" height="137" viewBox="0 0 137 137" fill="none" xmlns="http://www.w3.org/2000/svg">
<circle cx="68.5" cy="68.5" r="68.5" fill="black"/>
<path d="M61.732 96.5511C62.6141 98.8196 59.7785 100.185 58.58 100.569C56.1254 101.354 54.5922 100.337 53.4792 99.4169C52.4516 98.5683 51.5556 97.0442 51.0776 96.1458C47.9857 90.3431 43.9655 78.9107 43.9655 78.9107L48.3713 78.4319L55.2918 78.612C55.2895 78.612 56.6542 83.4737 61.732 96.5511Z" fill="white"/>
<path d="M79.2446 86.7707C67.7474 79.7947 56.0031 81.6625 56.0031 81.6625L41.2961 83.374L40.8181 81.2928L39.0655 64.9987L44.6074 63.0479C54.0888 59.7104 62.4848 53.699 68.6987 45.6255C69.5947 44.4616 70.075 43.7434 70.075 43.7434L78.6835 84.1206L79.2446 86.7707Z" fill="white"/>
<path d="M80.0551 88.212C78.1223 86.2565 75.5223 84.7465 73.6957 84.0354C70.8809 79.4795 68.6064 73.9067 67.177 67.7105C65.6715 61.1659 65.2905 54.6402 66.0363 48.8256C68.6156 45.9172 69.9896 42.7124 69.9896 42.7124L78.6858 84.1207L80.0551 88.212Z" fill="white"/>
<path d="M103.158 58.9803C107.07 75.976 102.74 91.5732 93.4874 93.818C84.2346 96.0627 73.5618 84.1041 69.6501 67.1084C65.7384 50.1127 70.068 34.5155 79.3208 32.2708C88.5735 30.026 99.2464 41.9846 103.158 58.9803Z" fill="white"/>
<path d="M91.8733 89.1625C91.587 89.1625 91.2937 89.1436 90.9981 89.1056C85.0798 88.3447 76.9562 80.0033 73.5572 66.0417C69.9526 51.2339 73.9936 39.1402 80.0274 37.1372C80.1937 37.0803 80.3553 37.0353 80.5192 36.9973C80.7894 36.9381 81.0688 36.8907 81.3505 36.867C81.526 36.8527 81.7038 36.8433 81.8816 36.8433C88.1186 36.8433 96.6717 45.4928 100.193 59.9688C102.955 71.3135 101.036 80.1859 98.3181 84.7038C96.8888 87.0861 95.1269 88.5747 93.2288 89.0108C92.954 89.0748 92.6792 89.1175 92.4021 89.1412C92.2266 89.153 92.0511 89.1625 91.8733 89.1625Z" fill="black"/>
<path d="M83.3433 70.1048L76.7484 73.3499L75.0119 74.2079C74.6402 73.3404 74.1575 72.4325 73.8204 71.5033C73.2454 69.8796 72.6335 68.2796 72.1948 66.4733C71.6036 64.0532 71.2042 61.5548 71.0033 59.3076L73.1069 59.054L80.5885 58.1177L81.1381 60.5118L82.7014 67.3148L82.7937 67.7059L83.3433 70.1048Z" fill="white"/>
<path d="M85.3107 63.3016C86.0727 66.6106 85.1906 69.6542 83.3433 70.1046C81.496 70.5526 79.3808 68.2344 78.6188 64.9253C77.8568 61.6162 78.7389 58.5702 80.5862 58.1222C82.4335 57.6766 84.5486 59.9949 85.3107 63.3016Z" fill="white"/>
<path d="M83.5673 63.7258C83.9321 65.3116 83.5096 66.7694 82.6252 66.9851C81.7408 67.2008 80.7271 66.0891 80.3622 64.5033C79.9974 62.9175 80.4199 61.4597 81.3043 61.244C82.1911 61.0307 83.2025 62.1401 83.5673 63.7258Z" fill="black"/>
<path d="M51.8928 82.1389L42.483 83.4142C40.1231 83.8077 38.2896 83.0705 36.7055 81.3116C35.5371 80.015 34.6874 78.0595 34.2556 75.8834C33.0617 69.865 36.2853 65.6718 39.0655 64.9986L43.028 63.6049L47.032 62.1257C44.963 64.0386 44.1548 68.4902 45.2332 73.1741C45.8382 75.791 46.9258 78.0571 48.2397 79.6737C48.4475 79.9321 48.6623 80.1738 48.884 80.3967C49.8261 81.3685 50.8629 81.9232 51.8928 82.1389Z" fill="white"/>
</svg>
