<svg width="122" height="81" viewBox="0 0 122 81" fill="none" xmlns="http://www.w3.org/2000/svg">
<path d="M51.4378 3.05176e-05C40.6978 6.74003 32.3478 15.18 26.8878 26.67C38.6178 27.94 47.4177 33.12 51.6677 44.07C55.6577 54.37 53.9678 64.09 46.1878 72.12C38.1478 80.41 28.2478 82.76 17.4078 78.81C6.93776 74.99 1.07775 66.98 0.157757 55.96C-2.02224 29.83 18.6777 4.46003 44.7378 0.89003C46.9678 0.580032 49.1978 0.300034 51.4378 3.05176e-05Z" fill="#F0E9E3"/>
<path d="M118.838 3.05176e-05C108.098 6.74003 99.7478 15.18 94.2878 26.67C106.018 27.94 114.818 33.12 119.068 44.07C123.058 54.37 121.368 64.09 113.588 72.12C105.548 80.41 95.6478 82.76 84.8078 78.81C74.3378 74.99 68.4778 66.98 67.5578 55.96C65.3778 29.83 86.0778 4.46003 112.138 0.89003C114.368 0.580032 116.608 0.300034 118.838 3.05176e-05Z" fill="#F0E9E3"/>
</svg>
